<svg width="1024" height="1024" viewBox="0 0 1024 1024" fill="none" xmlns="http://www.w3.org/2000/svg">
<rect width="1024" height="1024" fill="white"/>
<path d="M544.301 86.375L881.618 269.625L887.499 272.819L821.297 313.104L512.317 145.248L299.783 260.709H539.844C568.888 260.709 596.312 263.951 622.114 270.436C647.917 276.785 670.747 285.701 690.605 297.184C710.599 308.531 728.499 322.04 744.305 337.711C760.245 353.381 773.349 370.538 783.616 389.181C794.018 407.823 801.921 427.547 807.324 448.351C812.728 469.02 815.43 490.229 815.43 511.979C815.43 533.728 812.728 555.006 807.324 575.81C801.921 596.478 794.018 616.134 783.616 634.776C773.349 653.419 760.245 670.576 744.305 686.246C728.499 701.917 710.599 715.494 690.605 726.977C670.747 738.324 647.917 747.24 622.114 753.725C596.312 760.074 568.888 763.248 539.844 763.248H300.632L512.317 878.248L825.31 708.212L895.955 746.082L881.618 753.871L544.301 937.121L512.317 954.497L480.334 937.121L143.018 753.871L130.834 747.253L205.195 711.401L280.469 752.294V720.266L344.032 698.404H345.312V697.964L345.378 697.941L345.312 697.751V325.553H344.911L345.378 324.194L280.469 301.869V271.201L199.642 315.111L128.996 277.241L143.018 269.625L480.334 86.375L512.317 69L544.301 86.375ZM175.001 358.633V670.451L108 702.754V322.716L175.001 358.633ZM916.635 700.437L849.635 664.521V354.39L916.635 313.62V700.437ZM475 698.404H539.844C560.918 698.404 579.764 693.744 596.38 684.423C612.996 674.967 626.572 661.862 637.109 645.111C647.782 628.36 655.82 608.772 661.224 586.347C666.762 563.786 669.531 538.997 669.531 511.979C669.531 490.364 667.91 470.235 664.668 451.593C661.426 432.95 656.36 415.861 649.471 400.326C642.581 384.656 634.07 371.349 623.938 360.406C613.942 349.329 601.783 340.751 587.464 334.672C573.144 328.593 557.271 325.553 539.844 325.553H475V698.404Z" fill="black"/>
</svg>
