<svg width="809" height="886" viewBox="0 0 809 886" fill="none" xmlns="http://www.w3.org/2000/svg">
<path d="M436.301 17.375L773.618 200.625L779.499 203.819L713.297 244.104L404.317 76.248L191.783 191.709H431.844C460.888 191.709 488.312 194.951 514.114 201.436C539.917 207.785 562.747 216.701 582.605 228.184C602.599 239.531 620.499 253.04 636.305 268.711C652.245 284.381 665.349 301.538 675.616 320.181C686.018 338.823 693.921 358.547 699.324 379.351C704.728 400.02 707.43 421.229 707.43 442.979C707.43 464.728 704.728 486.006 699.324 506.81C693.921 527.478 686.018 547.134 675.616 565.776C665.349 584.419 652.245 601.576 636.305 617.246C620.499 632.917 602.599 646.494 582.605 657.977C562.747 669.324 539.917 678.24 514.114 684.725C488.312 691.074 460.888 694.248 431.844 694.248H192.632L404.317 809.248L717.31 639.212L787.955 677.082L773.618 684.871L436.301 868.121L404.317 885.497L372.334 868.121L35.0176 684.871L22.834 678.253L97.1953 642.401L172.469 683.294V651.266L236.032 629.404H237.312V628.964L237.378 628.941L237.312 628.751V256.553H236.911L237.378 255.194L172.469 232.869V202.201L91.6416 246.111L20.9961 208.241L35.0176 200.625L372.334 17.375L404.317 0L436.301 17.375ZM67.001 289.633V601.451L0 633.754V253.716L67.001 289.633ZM808.635 631.437L741.635 595.521V285.39L808.635 244.62V631.437ZM367 629.404H431.844C452.918 629.404 471.764 624.744 488.38 615.423C504.996 605.967 518.572 592.862 529.109 576.111C539.782 559.36 547.82 539.772 553.224 517.347C558.762 494.786 561.531 469.997 561.531 442.979C561.531 421.364 559.91 401.235 556.668 382.593C553.426 363.95 548.36 346.861 541.471 331.326C534.581 315.656 526.07 302.349 515.938 291.406C505.942 280.329 493.783 271.751 479.464 265.672C465.144 259.593 449.271 256.553 431.844 256.553H367V629.404Z" fill="white"/>
</svg>
