<svg width="2136" height="886" viewBox="0 0 2136 886" fill="none" xmlns="http://www.w3.org/2000/svg">
<path d="M873.616 268.04H880.616V205.18H873.616V182.08H930.456C946.043 182.08 958.41 186.373 967.556 194.96C976.796 203.453 981.416 217.313 981.416 236.54C981.416 255.767 976.796 269.673 967.556 278.26C958.41 286.753 946.043 291 930.456 291H873.616V268.04ZM927.936 268.04C931.11 268.04 933.49 267.2 935.076 265.52C936.663 263.84 937.456 261.227 937.456 257.68V215.4C937.456 208.493 934.283 205.04 927.936 205.04H919.816V268.04H927.936ZM1067.48 268.04V291H1030.52V281.48C1028.46 284.467 1025.57 287.127 1021.84 289.46C1018.2 291.793 1013.72 292.96 1008.4 292.96C1001.4 292.96 995.889 291.093 991.876 287.36C987.863 283.627 985.856 278.353 985.856 271.54C985.856 253.9 1000.84 244.847 1030.8 244.38C1030.52 241.207 1029.3 239.06 1027.16 237.94C1025.01 236.727 1021.37 236.12 1016.24 236.12C1012.04 236.12 1007.51 236.587 1002.66 237.52C997.896 238.36 993.509 239.527 989.496 241.02V215.26C994.443 214.047 999.809 213.067 1005.6 212.32C1011.38 211.573 1017.03 211.2 1022.54 211.2C1036.44 211.2 1046.38 213.72 1052.36 218.76C1058.33 223.8 1061.32 231.593 1061.32 242.14V268.04H1067.48ZM1030.52 258.24C1026.32 258.24 1023.05 258.8 1020.72 259.92C1018.48 261.04 1017.36 262.907 1017.36 265.52C1017.36 267.107 1017.82 268.413 1018.76 269.44C1019.78 270.373 1021.18 270.84 1022.96 270.84C1025.38 270.84 1027.25 269.813 1028.56 267.76C1029.86 265.707 1030.52 262.813 1030.52 259.08V258.24ZM1106.01 292.96C1094.25 292.96 1082.91 291.093 1071.99 287.36V266.64H1094.67V268.04C1094.67 272.52 1097.52 274.76 1103.21 274.76C1108.25 274.76 1110.77 273.033 1110.77 269.58C1110.77 267.713 1110.02 266.313 1108.53 265.38C1107.13 264.447 1104.61 263.653 1100.97 263L1093.97 261.74C1079.32 259.127 1071.99 250.82 1071.99 236.82C1071.99 228.7 1075.07 222.4 1081.23 217.92C1087.39 213.44 1095.7 211.2 1106.15 211.2C1117.82 211.2 1127.66 213.16 1135.69 217.08V236.54H1114.41V235.14C1114.41 233.273 1113.76 231.873 1112.45 230.94C1111.24 229.913 1109.42 229.4 1106.99 229.4C1102.32 229.4 1099.99 230.893 1099.99 233.88C1099.99 235.467 1100.64 236.68 1101.95 237.52C1103.26 238.36 1105.64 239.153 1109.09 239.9L1117.07 241.44C1125.38 243.027 1131.3 245.967 1134.85 250.26C1138.4 254.553 1140.17 260.06 1140.17 266.78C1140.17 275.273 1137.18 281.76 1131.21 286.24C1125.33 290.72 1116.93 292.96 1106.01 292.96ZM1237.55 268.04V291H1193.31V268.04H1199.19V245.08C1199.19 242 1198.53 239.76 1197.23 238.36C1195.92 236.867 1193.96 236.12 1191.35 236.12C1185.75 236.12 1182.95 239.107 1182.95 245.08V268.04H1188.83V291H1144.59V268.04H1150.75V205.04H1144.59V182.08H1182.95V224.08C1186.4 219.787 1190.13 216.567 1194.15 214.42C1198.16 212.273 1202.83 211.2 1208.15 211.2C1215.89 211.2 1221.68 213.627 1225.51 218.48C1229.43 223.333 1231.39 230.007 1231.39 238.5V268.04H1237.55ZM873.616 460.04H880.616V397.04H873.616V374.08H935.076C947.116 374.08 956.31 376.693 962.656 381.92C969.003 387.053 972.176 395.407 972.176 406.98C972.176 418.553 969.003 426.953 962.656 432.18C956.31 437.313 947.116 439.88 935.076 439.88H919.816V460.04H933.256V483H873.616V460.04ZM924.576 420C929.99 420 932.696 417.013 932.696 411.04V406C932.696 402.92 931.996 400.68 930.596 399.28C929.29 397.787 927.283 397.04 924.576 397.04H919.816V420H924.576ZM1036.48 403.2C1038.34 403.2 1040.12 403.387 1041.8 403.76C1043.48 404.133 1044.88 404.6 1046 405.16V431.9C1042.17 430.313 1038.06 429.52 1033.68 429.52C1027.8 429.52 1023.27 431.06 1020.1 434.14C1016.92 437.22 1015.34 441.793 1015.34 447.86V460.04H1027.94V483H976.976V460.04H983.136V428.12H976.976V405.16H1015.34V415.38C1017.95 411.46 1020.94 408.473 1024.3 406.42C1027.66 404.273 1031.72 403.2 1036.48 403.2ZM1092.24 484.96C1078.99 484.96 1068.63 481.507 1061.16 474.6C1053.7 467.6 1049.96 457.427 1049.96 444.08C1049.96 430.733 1053.7 420.607 1061.16 413.7C1068.63 406.7 1078.99 403.2 1092.24 403.2C1105.68 403.2 1116.09 406.747 1123.46 413.84C1130.84 420.84 1134.52 430.92 1134.52 444.08C1134.52 457.427 1130.79 467.6 1123.32 474.6C1115.86 481.507 1105.5 484.96 1092.24 484.96ZM1092.24 460.04C1094.95 460.04 1096.96 459.34 1098.26 457.94C1099.66 456.447 1100.36 454.16 1100.36 451.08V437.08C1100.36 434 1099.66 431.76 1098.26 430.36C1096.96 428.867 1094.95 428.12 1092.24 428.12C1089.54 428.12 1087.48 428.867 1086.08 430.36C1084.78 431.76 1084.12 434 1084.12 437.08V451.08C1084.12 454.16 1084.78 456.447 1086.08 457.94C1087.48 459.34 1089.54 460.04 1092.24 460.04ZM1180 516.04C1173.28 516.04 1166.84 515.573 1160.68 514.64C1154.61 513.707 1149.9 512.633 1146.54 511.42V488.46C1156.43 490.233 1165.3 491.12 1173.14 491.12C1178.46 491.12 1182.29 490.28 1184.62 488.6C1187.05 487.013 1188.26 483.98 1188.26 479.5V473.48C1185.93 476.467 1182.89 479.127 1179.16 481.46C1175.52 483.793 1171.32 484.96 1166.56 484.96C1157.04 484.96 1149.85 481.413 1145 474.32C1140.24 467.227 1137.86 457.147 1137.86 444.08C1137.86 431.013 1140.24 420.933 1145 413.84C1149.85 406.747 1157.04 403.2 1166.56 403.2C1171.32 403.2 1175.52 404.367 1179.16 406.7C1182.89 409.033 1185.93 411.693 1188.26 414.68V405.16H1226.62V428.12H1220.46V477.4C1220.46 490.933 1217.1 500.733 1210.38 506.8C1203.66 512.96 1193.53 516.04 1180 516.04ZM1180.14 460.04C1182.85 460.04 1184.85 459.34 1186.16 457.94C1187.56 456.447 1188.26 454.16 1188.26 451.08V437.08C1188.26 434 1187.56 431.76 1186.16 430.36C1184.85 428.867 1182.85 428.12 1180.14 428.12C1177.43 428.12 1175.38 428.867 1173.98 430.36C1172.67 431.76 1172.02 434 1172.02 437.08V451.08C1172.02 454.16 1172.67 456.447 1173.98 457.94C1175.38 459.34 1177.43 460.04 1180.14 460.04ZM1290.36 403.2C1292.23 403.2 1294 403.387 1295.68 403.76C1297.36 404.133 1298.76 404.6 1299.88 405.16V431.9C1296.06 430.313 1291.95 429.52 1287.56 429.52C1281.68 429.52 1277.16 431.06 1273.98 434.14C1270.81 437.22 1269.22 441.793 1269.22 447.86V460.04H1281.82V483H1230.86V460.04H1237.02V428.12H1230.86V405.16H1269.22V415.38C1271.84 411.46 1274.82 408.473 1278.18 406.42C1281.54 404.273 1285.6 403.2 1290.36 403.2ZM1386.03 460.04V483H1349.07V473.48C1347.02 476.467 1344.12 479.127 1340.39 481.46C1336.75 483.793 1332.27 484.96 1326.95 484.96C1319.95 484.96 1314.44 483.093 1310.43 479.36C1306.42 475.627 1304.41 470.353 1304.41 463.54C1304.41 445.9 1319.39 436.847 1349.35 436.38C1349.07 433.207 1347.86 431.06 1345.71 429.94C1343.56 428.727 1339.92 428.12 1334.79 428.12C1330.59 428.12 1326.06 428.587 1321.21 429.52C1316.45 430.36 1312.06 431.527 1308.05 433.02V407.26C1313 406.047 1318.36 405.067 1324.15 404.32C1329.94 403.573 1335.58 403.2 1341.09 403.2C1355 403.2 1364.94 405.72 1370.91 410.76C1376.88 415.8 1379.87 423.593 1379.87 434.14V460.04H1386.03ZM1349.07 450.24C1344.87 450.24 1341.6 450.8 1339.27 451.92C1337.03 453.04 1335.91 454.907 1335.91 457.52C1335.91 459.107 1336.38 460.413 1337.31 461.44C1338.34 462.373 1339.74 462.84 1341.51 462.84C1343.94 462.84 1345.8 461.813 1347.11 459.76C1348.42 457.707 1349.07 454.813 1349.07 451.08V450.24ZM1531.94 460.04V483H1487.7V460.04H1493.58V437.08C1493.58 434 1492.93 431.76 1491.62 430.36C1490.32 428.867 1488.36 428.12 1485.74 428.12C1480.14 428.12 1477.34 431.107 1477.34 437.08V460.04H1483.22V483H1439.26V460.04H1445.14V437.08C1445.14 434 1444.49 431.76 1443.18 430.36C1441.88 428.867 1439.92 428.12 1437.3 428.12C1431.7 428.12 1428.9 431.107 1428.9 437.08V460.04H1434.78V483H1390.54V460.04H1396.7V428.12H1390.54V405.16H1428.9V416.08C1435.62 407.493 1444.02 403.2 1454.1 403.2C1459.8 403.2 1464.42 404.553 1467.96 407.26C1471.6 409.873 1474.17 413.607 1475.66 418.46C1479.02 413.607 1482.85 409.873 1487.14 407.26C1491.53 404.647 1496.66 403.34 1502.54 403.34C1510.29 403.34 1516.08 405.767 1519.9 410.62C1523.82 415.473 1525.78 422.147 1525.78 430.64V460.04H1531.94ZM1677.82 460.04V483H1633.58V460.04H1639.46V437.08C1639.46 434 1638.81 431.76 1637.5 430.36C1636.2 428.867 1634.24 428.12 1631.62 428.12C1626.02 428.12 1623.22 431.107 1623.22 437.08V460.04H1629.1V483H1585.14V460.04H1591.02V437.08C1591.02 434 1590.37 431.76 1589.06 430.36C1587.76 428.867 1585.8 428.12 1583.18 428.12C1577.58 428.12 1574.78 431.107 1574.78 437.08V460.04H1580.66V483H1536.42V460.04H1542.58V428.12H1536.42V405.16H1574.78V416.08C1581.5 407.493 1589.9 403.2 1599.98 403.2C1605.68 403.2 1610.3 404.553 1613.84 407.26C1617.48 409.873 1620.05 413.607 1621.54 418.46C1624.9 413.607 1628.73 409.873 1633.02 407.26C1637.41 404.647 1642.54 403.34 1648.42 403.34C1656.17 403.34 1661.96 405.767 1665.78 410.62C1669.7 415.473 1671.66 422.147 1671.66 430.64V460.04H1677.82ZM1689.02 397.46V374.08H1717.58V397.46H1689.02ZM1682.3 483V460.04H1688.46V428.12H1682.3V405.16H1720.66V460.04H1726.82V483H1682.3ZM1823.66 460.04V483H1779.42V460.04H1785.3V437.08C1785.3 434 1784.65 431.76 1783.34 430.36C1782.03 428.867 1780.07 428.12 1777.46 428.12C1771.86 428.12 1769.06 431.107 1769.06 437.08V460.04H1774.94V483H1730.7V460.04H1736.86V428.12H1730.7V405.16H1769.06V416.08C1775.78 407.493 1784.18 403.2 1794.26 403.2C1802.01 403.2 1807.79 405.627 1811.62 410.48C1815.54 415.333 1817.5 422.007 1817.5 430.5V460.04H1823.66ZM1869.2 516.04C1862.48 516.04 1856.04 515.573 1849.88 514.64C1843.81 513.707 1839.1 512.633 1835.74 511.42V488.46C1845.63 490.233 1854.5 491.12 1862.34 491.12C1867.66 491.12 1871.49 490.28 1873.82 488.6C1876.25 487.013 1877.46 483.98 1877.46 479.5V473.48C1875.13 476.467 1872.09 479.127 1868.36 481.46C1864.72 483.793 1860.52 484.96 1855.76 484.96C1846.24 484.96 1839.05 481.413 1834.2 474.32C1829.44 467.227 1827.06 457.147 1827.06 444.08C1827.06 431.013 1829.44 420.933 1834.2 413.84C1839.05 406.747 1846.24 403.2 1855.76 403.2C1860.52 403.2 1864.72 404.367 1868.36 406.7C1872.09 409.033 1875.13 411.693 1877.46 414.68V405.16H1915.82V428.12H1909.66V477.4C1909.66 490.933 1906.3 500.733 1899.58 506.8C1892.86 512.96 1882.73 516.04 1869.2 516.04ZM1869.34 460.04C1872.05 460.04 1874.05 459.34 1875.36 457.94C1876.76 456.447 1877.46 454.16 1877.46 451.08V437.08C1877.46 434 1876.76 431.76 1875.36 430.36C1874.05 428.867 1872.05 428.12 1869.34 428.12C1866.63 428.12 1864.58 428.867 1863.18 430.36C1861.87 431.76 1861.22 434 1861.22 437.08V451.08C1861.22 454.16 1861.87 456.447 1863.18 457.94C1864.58 459.34 1866.63 460.04 1869.34 460.04ZM873.616 675V652.04H880.616V589.04H873.616V566.08H932.696V589.04H919.816V652.04H932.416V639.16H960.276V675H873.616ZM1046.42 652.04V675H1009.46V665.48C1007.41 668.467 1004.51 671.127 1000.78 673.46C997.141 675.793 992.661 676.96 987.341 676.96C980.341 676.96 974.835 675.093 970.821 671.36C966.808 667.627 964.801 662.353 964.801 655.54C964.801 637.9 979.781 628.847 1009.74 628.38C1009.46 625.207 1008.25 623.06 1006.1 621.94C1003.95 620.727 1000.31 620.12 995.181 620.12C990.981 620.12 986.455 620.587 981.601 621.52C976.841 622.36 972.455 623.527 968.441 625.02V599.26C973.388 598.047 978.755 597.067 984.541 596.32C990.328 595.573 995.975 595.2 1001.48 595.2C1015.39 595.2 1025.33 597.72 1031.3 602.76C1037.27 607.8 1040.26 615.593 1040.26 626.14V652.04H1046.42ZM1009.46 642.24C1005.26 642.24 1001.99 642.8 999.661 643.92C997.421 645.04 996.301 646.907 996.301 649.52C996.301 651.107 996.768 652.413 997.701 653.44C998.728 654.373 1000.13 654.84 1001.9 654.84C1004.33 654.84 1006.19 653.813 1007.5 651.76C1008.81 649.707 1009.46 646.813 1009.46 643.08V642.24ZM1143.89 652.04V675H1099.65V652.04H1105.53V629.08C1105.53 626 1104.88 623.76 1103.57 622.36C1102.27 620.867 1100.31 620.12 1097.69 620.12C1092.09 620.12 1089.29 623.107 1089.29 629.08V652.04H1095.17V675H1050.93V652.04H1057.09V620.12H1050.93V597.16H1089.29V608.08C1096.01 599.493 1104.41 595.2 1114.49 595.2C1122.24 595.2 1128.03 597.627 1131.85 602.48C1135.77 607.333 1137.73 614.007 1137.73 622.5V652.04H1143.89ZM1189.43 708.04C1182.71 708.04 1176.27 707.573 1170.11 706.64C1164.05 705.707 1159.33 704.633 1155.97 703.42V680.46C1165.87 682.233 1174.73 683.12 1182.57 683.12C1187.89 683.12 1191.72 682.28 1194.05 680.6C1196.48 679.013 1197.69 675.98 1197.69 671.5V665.48C1195.36 668.467 1192.33 671.127 1188.59 673.46C1184.95 675.793 1180.75 676.96 1175.99 676.96C1166.47 676.96 1159.29 673.413 1154.43 666.32C1149.67 659.227 1147.29 649.147 1147.29 636.08C1147.29 623.013 1149.67 612.933 1154.43 605.84C1159.29 598.747 1166.47 595.2 1175.99 595.2C1180.75 595.2 1184.95 596.367 1188.59 598.7C1192.33 601.033 1195.36 603.693 1197.69 606.68V597.16H1236.05V620.12H1229.89V669.4C1229.89 682.933 1226.53 692.733 1219.81 698.8C1213.09 704.96 1202.97 708.04 1189.43 708.04ZM1189.57 652.04C1192.28 652.04 1194.29 651.34 1195.59 649.94C1196.99 648.447 1197.69 646.16 1197.69 643.08V629.08C1197.69 626 1196.99 623.76 1195.59 622.36C1194.29 620.867 1192.28 620.12 1189.57 620.12C1186.87 620.12 1184.81 620.867 1183.41 622.36C1182.11 623.76 1181.45 626 1181.45 629.08V643.08C1181.45 646.16 1182.11 648.447 1183.41 649.94C1184.81 651.34 1186.87 652.04 1189.57 652.04ZM1332.14 652.04V675H1293.78V664.08C1287.06 672.667 1278.66 676.96 1268.58 676.96C1260.83 676.96 1255 674.533 1251.08 669.68C1247.25 664.827 1245.34 658.153 1245.34 649.66V620.12H1239.18V597.16H1277.54V643.08C1277.54 646.16 1278.19 648.447 1279.5 649.94C1280.9 651.34 1282.95 652.04 1285.66 652.04C1288.36 652.04 1290.37 651.34 1291.68 649.94C1293.08 648.447 1293.78 646.16 1293.78 643.08V620.12H1286.22V597.16H1325.98V652.04H1332.14ZM1417.61 652.04V675H1380.65V665.48C1378.6 668.467 1375.71 671.127 1371.97 673.46C1368.33 675.793 1363.85 676.96 1358.53 676.96C1351.53 676.96 1346.03 675.093 1342.01 671.36C1338 667.627 1335.99 662.353 1335.99 655.54C1335.99 637.9 1350.97 628.847 1380.93 628.38C1380.65 625.207 1379.44 623.06 1377.29 621.94C1375.15 620.727 1371.51 620.12 1366.37 620.12C1362.17 620.12 1357.65 620.587 1352.79 621.52C1348.03 622.36 1343.65 623.527 1339.63 625.02V599.26C1344.58 598.047 1349.95 597.067 1355.73 596.32C1361.52 595.573 1367.17 595.2 1372.67 595.2C1386.58 595.2 1396.52 597.72 1402.49 602.76C1408.47 607.8 1411.45 615.593 1411.45 626.14V652.04H1417.61ZM1380.65 642.24C1376.45 642.24 1373.19 642.8 1370.85 643.92C1368.61 645.04 1367.49 646.907 1367.49 649.52C1367.49 651.107 1367.96 652.413 1368.89 653.44C1369.92 654.373 1371.32 654.84 1373.09 654.84C1375.52 654.84 1377.39 653.813 1378.69 651.76C1380 649.707 1380.65 646.813 1380.65 643.08V642.24ZM1463.15 708.04C1456.43 708.04 1449.99 707.573 1443.83 706.64C1437.76 705.707 1433.05 704.633 1429.69 703.42V680.46C1439.58 682.233 1448.45 683.12 1456.29 683.12C1461.61 683.12 1465.43 682.28 1467.77 680.6C1470.19 679.013 1471.41 675.98 1471.41 671.5V665.48C1469.07 668.467 1466.04 671.127 1462.31 673.46C1458.67 675.793 1454.47 676.96 1449.71 676.96C1440.19 676.96 1433 673.413 1428.15 666.32C1423.39 659.227 1421.01 649.147 1421.01 636.08C1421.01 623.013 1423.39 612.933 1428.15 605.84C1433 598.747 1440.19 595.2 1449.71 595.2C1454.47 595.2 1458.67 596.367 1462.31 598.7C1466.04 601.033 1469.07 603.693 1471.41 606.68V597.16H1509.77V620.12H1503.61V669.4C1503.61 682.933 1500.25 692.733 1493.53 698.8C1486.81 704.96 1476.68 708.04 1463.15 708.04ZM1463.29 652.04C1465.99 652.04 1468 651.34 1469.31 649.94C1470.71 648.447 1471.41 646.16 1471.41 643.08V629.08C1471.41 626 1470.71 623.76 1469.31 622.36C1468 620.867 1465.99 620.12 1463.29 620.12C1460.58 620.12 1458.53 620.867 1457.13 622.36C1455.82 623.76 1455.17 626 1455.17 629.08V643.08C1455.17 646.16 1455.82 648.447 1457.13 649.94C1458.53 651.34 1460.58 652.04 1463.29 652.04ZM1555.45 676.96C1542.19 676.96 1531.83 673.507 1524.37 666.6C1516.9 659.6 1513.17 649.427 1513.17 636.08C1513.17 622.733 1516.9 612.607 1524.37 605.7C1531.83 598.7 1542.19 595.2 1555.45 595.2C1568.61 595.2 1578.08 598.653 1583.87 605.56C1589.75 612.373 1592.69 620.867 1592.69 631.04V641.12H1547.33V641.96C1547.33 645.413 1548.35 647.98 1550.41 649.66C1552.46 651.247 1555.87 652.04 1560.63 652.04C1566.32 652.04 1571.73 651.62 1576.87 650.78C1582 649.94 1586.48 648.867 1590.31 647.56V669.96C1587.04 671.733 1582.23 673.367 1575.89 674.86C1569.63 676.26 1562.82 676.96 1555.45 676.96ZM1563.57 625.72V624.04C1563.57 620.867 1562.87 618.58 1561.47 617.18C1560.16 615.78 1558.15 615.08 1555.45 615.08C1552.74 615.08 1550.69 615.827 1549.29 617.32C1547.98 618.72 1547.33 620.96 1547.33 624.04V625.72H1563.57Z" fill="black"/>
<path d="M436.301 17.375L773.618 200.625L779.499 203.819L713.297 244.104L404.317 76.248L191.783 191.709H431.844C460.888 191.709 488.312 194.951 514.114 201.436C539.917 207.785 562.747 216.701 582.605 228.184C602.599 239.531 620.499 253.04 636.305 268.711C652.245 284.381 665.349 301.538 675.616 320.181C686.018 338.823 693.921 358.547 699.324 379.351C704.728 400.02 707.43 421.229 707.43 442.979C707.43 464.728 704.728 486.006 699.324 506.81C693.921 527.478 686.018 547.134 675.616 565.776C665.349 584.419 652.245 601.576 636.305 617.246C620.499 632.917 602.599 646.494 582.605 657.977C562.747 669.324 539.917 678.24 514.114 684.725C488.312 691.074 460.888 694.248 431.844 694.248H192.632L404.317 809.248L717.31 639.212L787.955 677.082L773.618 684.871L436.301 868.121L404.317 885.497L372.334 868.121L35.0176 684.871L22.834 678.253L97.1953 642.401L172.469 683.294V651.266L236.032 629.404H237.312V628.964L237.378 628.941L237.312 628.751V256.553H236.911L237.378 255.194L172.469 232.869V202.201L91.6416 246.111L20.9961 208.241L35.0176 200.625L372.334 17.375L404.317 0L436.301 17.375ZM67.001 289.633V601.451L0 633.754V253.716L67.001 289.633ZM808.635 631.437L741.635 595.521V285.39L808.635 244.62V631.437ZM367 629.404H431.844C452.918 629.404 471.764 624.744 488.38 615.423C504.996 605.967 518.572 592.862 529.109 576.111C539.782 559.36 547.82 539.772 553.224 517.347C558.762 494.786 561.531 469.997 561.531 442.979C561.531 421.364 559.91 401.235 556.668 382.593C553.426 363.95 548.36 346.861 541.471 331.326C534.581 315.656 526.07 302.349 515.938 291.406C505.942 280.329 493.783 271.751 479.464 265.672C465.144 259.593 449.271 256.553 431.844 256.553H367V629.404Z" fill="black"/>
</svg>
