<svg width="2188" height="886" viewBox="0 0 2188 886" fill="none" xmlns="http://www.w3.org/2000/svg">
<path d="M925.616 268.04H932.616V205.18H925.616V182.08H982.456C998.043 182.08 1010.41 186.373 1019.56 194.96C1028.8 203.453 1033.42 217.313 1033.42 236.54C1033.42 255.767 1028.8 269.673 1019.56 278.26C1010.41 286.753 998.043 291 982.456 291H925.616V268.04ZM979.936 268.04C983.11 268.04 985.49 267.2 987.076 265.52C988.663 263.84 989.456 261.227 989.456 257.68V215.4C989.456 208.493 986.283 205.04 979.936 205.04H971.816V268.04H979.936ZM1119.48 268.04V291H1082.52V281.48C1080.46 284.467 1077.57 287.127 1073.84 289.46C1070.2 291.793 1065.72 292.96 1060.4 292.96C1053.4 292.96 1047.89 291.093 1043.88 287.36C1039.86 283.627 1037.86 278.353 1037.86 271.54C1037.86 253.9 1052.84 244.847 1082.8 244.38C1082.52 241.207 1081.3 239.06 1079.16 237.94C1077.01 236.727 1073.37 236.12 1068.24 236.12C1064.04 236.12 1059.51 236.587 1054.66 237.52C1049.9 238.36 1045.51 239.527 1041.5 241.02V215.26C1046.44 214.047 1051.81 213.067 1057.6 212.32C1063.38 211.573 1069.03 211.2 1074.54 211.2C1088.44 211.2 1098.38 213.72 1104.36 218.76C1110.33 223.8 1113.32 231.593 1113.32 242.14V268.04H1119.48ZM1082.52 258.24C1078.32 258.24 1075.05 258.8 1072.72 259.92C1070.48 261.04 1069.36 262.907 1069.36 265.52C1069.36 267.107 1069.82 268.413 1070.76 269.44C1071.78 270.373 1073.18 270.84 1074.96 270.84C1077.38 270.84 1079.25 269.813 1080.56 267.76C1081.86 265.707 1082.52 262.813 1082.52 259.08V258.24ZM1158.01 292.96C1146.25 292.96 1134.91 291.093 1123.99 287.36V266.64H1146.67V268.04C1146.67 272.52 1149.52 274.76 1155.21 274.76C1160.25 274.76 1162.77 273.033 1162.77 269.58C1162.77 267.713 1162.02 266.313 1160.53 265.38C1159.13 264.447 1156.61 263.653 1152.97 263L1145.97 261.74C1131.32 259.127 1123.99 250.82 1123.99 236.82C1123.99 228.7 1127.07 222.4 1133.23 217.92C1139.39 213.44 1147.7 211.2 1158.15 211.2C1169.82 211.2 1179.66 213.16 1187.69 217.08V236.54H1166.41V235.14C1166.41 233.273 1165.76 231.873 1164.45 230.94C1163.24 229.913 1161.42 229.4 1158.99 229.4C1154.32 229.4 1151.99 230.893 1151.99 233.88C1151.99 235.467 1152.64 236.68 1153.95 237.52C1155.26 238.36 1157.64 239.153 1161.09 239.9L1169.07 241.44C1177.38 243.027 1183.3 245.967 1186.85 250.26C1190.4 254.553 1192.17 260.06 1192.17 266.78C1192.17 275.273 1189.18 281.76 1183.21 286.24C1177.33 290.72 1168.93 292.96 1158.01 292.96ZM1289.55 268.04V291H1245.31V268.04H1251.19V245.08C1251.19 242 1250.53 239.76 1249.23 238.36C1247.92 236.867 1245.96 236.12 1243.35 236.12C1237.75 236.12 1234.95 239.107 1234.95 245.08V268.04H1240.83V291H1196.59V268.04H1202.75V205.04H1196.59V182.08H1234.95V224.08C1238.4 219.787 1242.13 216.567 1246.15 214.42C1250.16 212.273 1254.83 211.2 1260.15 211.2C1267.89 211.2 1273.68 213.627 1277.51 218.48C1281.43 223.333 1283.39 230.007 1283.39 238.5V268.04H1289.55ZM925.616 460.04H932.616V397.04H925.616V374.08H987.076C999.116 374.08 1008.31 376.693 1014.66 381.92C1021 387.053 1024.18 395.407 1024.18 406.98C1024.18 418.553 1021 426.953 1014.66 432.18C1008.31 437.313 999.116 439.88 987.076 439.88H971.816V460.04H985.256V483H925.616V460.04ZM976.576 420C981.99 420 984.696 417.013 984.696 411.04V406C984.696 402.92 983.996 400.68 982.596 399.28C981.29 397.787 979.283 397.04 976.576 397.04H971.816V420H976.576ZM1088.48 403.2C1090.34 403.2 1092.12 403.387 1093.8 403.76C1095.48 404.133 1096.88 404.6 1098 405.16V431.9C1094.17 430.313 1090.06 429.52 1085.68 429.52C1079.8 429.52 1075.27 431.06 1072.1 434.14C1068.92 437.22 1067.34 441.793 1067.34 447.86V460.04H1079.94V483H1028.98V460.04H1035.14V428.12H1028.98V405.16H1067.34V415.38C1069.95 411.46 1072.94 408.473 1076.3 406.42C1079.66 404.273 1083.72 403.2 1088.48 403.2ZM1144.24 484.96C1130.99 484.96 1120.63 481.507 1113.16 474.6C1105.7 467.6 1101.96 457.427 1101.96 444.08C1101.96 430.733 1105.7 420.607 1113.16 413.7C1120.63 406.7 1130.99 403.2 1144.24 403.2C1157.68 403.2 1168.09 406.747 1175.46 413.84C1182.84 420.84 1186.52 430.92 1186.52 444.08C1186.52 457.427 1182.79 467.6 1175.32 474.6C1167.86 481.507 1157.5 484.96 1144.24 484.96ZM1144.24 460.04C1146.95 460.04 1148.96 459.34 1150.26 457.94C1151.66 456.447 1152.36 454.16 1152.36 451.08V437.08C1152.36 434 1151.66 431.76 1150.26 430.36C1148.96 428.867 1146.95 428.12 1144.24 428.12C1141.54 428.12 1139.48 428.867 1138.08 430.36C1136.78 431.76 1136.12 434 1136.12 437.08V451.08C1136.12 454.16 1136.78 456.447 1138.08 457.94C1139.48 459.34 1141.54 460.04 1144.24 460.04ZM1232 516.04C1225.28 516.04 1218.84 515.573 1212.68 514.64C1206.61 513.707 1201.9 512.633 1198.54 511.42V488.46C1208.43 490.233 1217.3 491.12 1225.14 491.12C1230.46 491.12 1234.29 490.28 1236.62 488.6C1239.05 487.013 1240.26 483.98 1240.26 479.5V473.48C1237.93 476.467 1234.89 479.127 1231.16 481.46C1227.52 483.793 1223.32 484.96 1218.56 484.96C1209.04 484.96 1201.85 481.413 1197 474.32C1192.24 467.227 1189.86 457.147 1189.86 444.08C1189.86 431.013 1192.24 420.933 1197 413.84C1201.85 406.747 1209.04 403.2 1218.56 403.2C1223.32 403.2 1227.52 404.367 1231.16 406.7C1234.89 409.033 1237.93 411.693 1240.26 414.68V405.16H1278.62V428.12H1272.46V477.4C1272.46 490.933 1269.1 500.733 1262.38 506.8C1255.66 512.96 1245.53 516.04 1232 516.04ZM1232.14 460.04C1234.85 460.04 1236.85 459.34 1238.16 457.94C1239.56 456.447 1240.26 454.16 1240.26 451.08V437.08C1240.26 434 1239.56 431.76 1238.16 430.36C1236.85 428.867 1234.85 428.12 1232.14 428.12C1229.43 428.12 1227.38 428.867 1225.98 430.36C1224.67 431.76 1224.02 434 1224.02 437.08V451.08C1224.02 454.16 1224.67 456.447 1225.98 457.94C1227.38 459.34 1229.43 460.04 1232.14 460.04ZM1342.36 403.2C1344.23 403.2 1346 403.387 1347.68 403.76C1349.36 404.133 1350.76 404.6 1351.88 405.16V431.9C1348.06 430.313 1343.95 429.52 1339.56 429.52C1333.68 429.52 1329.16 431.06 1325.98 434.14C1322.81 437.22 1321.22 441.793 1321.22 447.86V460.04H1333.82V483H1282.86V460.04H1289.02V428.12H1282.86V405.16H1321.22V415.38C1323.84 411.46 1326.82 408.473 1330.18 406.42C1333.54 404.273 1337.6 403.2 1342.36 403.2ZM1438.03 460.04V483H1401.07V473.48C1399.02 476.467 1396.12 479.127 1392.39 481.46C1388.75 483.793 1384.27 484.96 1378.95 484.96C1371.95 484.96 1366.44 483.093 1362.43 479.36C1358.42 475.627 1356.41 470.353 1356.41 463.54C1356.41 445.9 1371.39 436.847 1401.35 436.38C1401.07 433.207 1399.86 431.06 1397.71 429.94C1395.56 428.727 1391.92 428.12 1386.79 428.12C1382.59 428.12 1378.06 428.587 1373.21 429.52C1368.45 430.36 1364.06 431.527 1360.05 433.02V407.26C1365 406.047 1370.36 405.067 1376.15 404.32C1381.94 403.573 1387.58 403.2 1393.09 403.2C1407 403.2 1416.94 405.72 1422.91 410.76C1428.88 415.8 1431.87 423.593 1431.87 434.14V460.04H1438.03ZM1401.07 450.24C1396.87 450.24 1393.6 450.8 1391.27 451.92C1389.03 453.04 1387.91 454.907 1387.91 457.52C1387.91 459.107 1388.38 460.413 1389.31 461.44C1390.34 462.373 1391.74 462.84 1393.51 462.84C1395.94 462.84 1397.8 461.813 1399.11 459.76C1400.42 457.707 1401.07 454.813 1401.07 451.08V450.24ZM1583.94 460.04V483H1539.7V460.04H1545.58V437.08C1545.58 434 1544.93 431.76 1543.62 430.36C1542.32 428.867 1540.36 428.12 1537.74 428.12C1532.14 428.12 1529.34 431.107 1529.34 437.08V460.04H1535.22V483H1491.26V460.04H1497.14V437.08C1497.14 434 1496.49 431.76 1495.18 430.36C1493.88 428.867 1491.92 428.12 1489.3 428.12C1483.7 428.12 1480.9 431.107 1480.9 437.08V460.04H1486.78V483H1442.54V460.04H1448.7V428.12H1442.54V405.16H1480.9V416.08C1487.62 407.493 1496.02 403.2 1506.1 403.2C1511.8 403.2 1516.42 404.553 1519.96 407.26C1523.6 409.873 1526.17 413.607 1527.66 418.46C1531.02 413.607 1534.85 409.873 1539.14 407.26C1543.53 404.647 1548.66 403.34 1554.54 403.34C1562.29 403.34 1568.08 405.767 1571.9 410.62C1575.82 415.473 1577.78 422.147 1577.78 430.64V460.04H1583.94ZM1729.82 460.04V483H1685.58V460.04H1691.46V437.08C1691.46 434 1690.81 431.76 1689.5 430.36C1688.2 428.867 1686.24 428.12 1683.62 428.12C1678.02 428.12 1675.22 431.107 1675.22 437.08V460.04H1681.1V483H1637.14V460.04H1643.02V437.08C1643.02 434 1642.37 431.76 1641.06 430.36C1639.76 428.867 1637.8 428.12 1635.18 428.12C1629.58 428.12 1626.78 431.107 1626.78 437.08V460.04H1632.66V483H1588.42V460.04H1594.58V428.12H1588.42V405.16H1626.78V416.08C1633.5 407.493 1641.9 403.2 1651.98 403.2C1657.68 403.2 1662.3 404.553 1665.84 407.26C1669.48 409.873 1672.05 413.607 1673.54 418.46C1676.9 413.607 1680.73 409.873 1685.02 407.26C1689.41 404.647 1694.54 403.34 1700.42 403.34C1708.17 403.34 1713.96 405.767 1717.78 410.62C1721.7 415.473 1723.66 422.147 1723.66 430.64V460.04H1729.82ZM1741.02 397.46V374.08H1769.58V397.46H1741.02ZM1734.3 483V460.04H1740.46V428.12H1734.3V405.16H1772.66V460.04H1778.82V483H1734.3ZM1875.66 460.04V483H1831.42V460.04H1837.3V437.08C1837.3 434 1836.65 431.76 1835.34 430.36C1834.03 428.867 1832.07 428.12 1829.46 428.12C1823.86 428.12 1821.06 431.107 1821.06 437.08V460.04H1826.94V483H1782.7V460.04H1788.86V428.12H1782.7V405.16H1821.06V416.08C1827.78 407.493 1836.18 403.2 1846.26 403.2C1854.01 403.2 1859.79 405.627 1863.62 410.48C1867.54 415.333 1869.5 422.007 1869.5 430.5V460.04H1875.66ZM1921.2 516.04C1914.48 516.04 1908.04 515.573 1901.88 514.64C1895.81 513.707 1891.1 512.633 1887.74 511.42V488.46C1897.63 490.233 1906.5 491.12 1914.34 491.12C1919.66 491.12 1923.49 490.28 1925.82 488.6C1928.25 487.013 1929.46 483.98 1929.46 479.5V473.48C1927.13 476.467 1924.09 479.127 1920.36 481.46C1916.72 483.793 1912.52 484.96 1907.76 484.96C1898.24 484.96 1891.05 481.413 1886.2 474.32C1881.44 467.227 1879.06 457.147 1879.06 444.08C1879.06 431.013 1881.44 420.933 1886.2 413.84C1891.05 406.747 1898.24 403.2 1907.76 403.2C1912.52 403.2 1916.72 404.367 1920.36 406.7C1924.09 409.033 1927.13 411.693 1929.46 414.68V405.16H1967.82V428.12H1961.66V477.4C1961.66 490.933 1958.3 500.733 1951.58 506.8C1944.86 512.96 1934.73 516.04 1921.2 516.04ZM1921.34 460.04C1924.05 460.04 1926.05 459.34 1927.36 457.94C1928.76 456.447 1929.46 454.16 1929.46 451.08V437.08C1929.46 434 1928.76 431.76 1927.36 430.36C1926.05 428.867 1924.05 428.12 1921.34 428.12C1918.63 428.12 1916.58 428.867 1915.18 430.36C1913.87 431.76 1913.22 434 1913.22 437.08V451.08C1913.22 454.16 1913.87 456.447 1915.18 457.94C1916.58 459.34 1918.63 460.04 1921.34 460.04ZM925.616 675V652.04H932.616V589.04H925.616V566.08H984.696V589.04H971.816V652.04H984.416V639.16H1012.28V675H925.616ZM1098.42 652.04V675H1061.46V665.48C1059.41 668.467 1056.51 671.127 1052.78 673.46C1049.14 675.793 1044.66 676.96 1039.34 676.96C1032.34 676.96 1026.83 675.093 1022.82 671.36C1018.81 667.627 1016.8 662.353 1016.8 655.54C1016.8 637.9 1031.78 628.847 1061.74 628.38C1061.46 625.207 1060.25 623.06 1058.1 621.94C1055.95 620.727 1052.31 620.12 1047.18 620.12C1042.98 620.12 1038.45 620.587 1033.6 621.52C1028.84 622.36 1024.45 623.527 1020.44 625.02V599.26C1025.39 598.047 1030.75 597.067 1036.54 596.32C1042.33 595.573 1047.97 595.2 1053.48 595.2C1067.39 595.2 1077.33 597.72 1083.3 602.76C1089.27 607.8 1092.26 615.593 1092.26 626.14V652.04H1098.42ZM1061.46 642.24C1057.26 642.24 1053.99 642.8 1051.66 643.92C1049.42 645.04 1048.3 646.907 1048.3 649.52C1048.3 651.107 1048.77 652.413 1049.7 653.44C1050.73 654.373 1052.13 654.84 1053.9 654.84C1056.33 654.84 1058.19 653.813 1059.5 651.76C1060.81 649.707 1061.46 646.813 1061.46 643.08V642.24ZM1195.89 652.04V675H1151.65V652.04H1157.53V629.08C1157.53 626 1156.88 623.76 1155.57 622.36C1154.27 620.867 1152.31 620.12 1149.69 620.12C1144.09 620.12 1141.29 623.107 1141.29 629.08V652.04H1147.17V675H1102.93V652.04H1109.09V620.12H1102.93V597.16H1141.29V608.08C1148.01 599.493 1156.41 595.2 1166.49 595.2C1174.24 595.2 1180.03 597.627 1183.85 602.48C1187.77 607.333 1189.73 614.007 1189.73 622.5V652.04H1195.89ZM1241.43 708.04C1234.71 708.04 1228.27 707.573 1222.11 706.64C1216.05 705.707 1211.33 704.633 1207.97 703.42V680.46C1217.87 682.233 1226.73 683.12 1234.57 683.12C1239.89 683.12 1243.72 682.28 1246.05 680.6C1248.48 679.013 1249.69 675.98 1249.69 671.5V665.48C1247.36 668.467 1244.33 671.127 1240.59 673.46C1236.95 675.793 1232.75 676.96 1227.99 676.96C1218.47 676.96 1211.29 673.413 1206.43 666.32C1201.67 659.227 1199.29 649.147 1199.29 636.08C1199.29 623.013 1201.67 612.933 1206.43 605.84C1211.29 598.747 1218.47 595.2 1227.99 595.2C1232.75 595.2 1236.95 596.367 1240.59 598.7C1244.33 601.033 1247.36 603.693 1249.69 606.68V597.16H1288.05V620.12H1281.89V669.4C1281.89 682.933 1278.53 692.733 1271.81 698.8C1265.09 704.96 1254.97 708.04 1241.43 708.04ZM1241.57 652.04C1244.28 652.04 1246.29 651.34 1247.59 649.94C1248.99 648.447 1249.69 646.16 1249.69 643.08V629.08C1249.69 626 1248.99 623.76 1247.59 622.36C1246.29 620.867 1244.28 620.12 1241.57 620.12C1238.87 620.12 1236.81 620.867 1235.41 622.36C1234.11 623.76 1233.45 626 1233.45 629.08V643.08C1233.45 646.16 1234.11 648.447 1235.41 649.94C1236.81 651.34 1238.87 652.04 1241.57 652.04ZM1384.14 652.04V675H1345.78V664.08C1339.06 672.667 1330.66 676.96 1320.58 676.96C1312.83 676.96 1307 674.533 1303.08 669.68C1299.25 664.827 1297.34 658.153 1297.34 649.66V620.12H1291.18V597.16H1329.54V643.08C1329.54 646.16 1330.19 648.447 1331.5 649.94C1332.9 651.34 1334.95 652.04 1337.66 652.04C1340.36 652.04 1342.37 651.34 1343.68 649.94C1345.08 648.447 1345.78 646.16 1345.78 643.08V620.12H1338.22V597.16H1377.98V652.04H1384.14ZM1469.61 652.04V675H1432.65V665.48C1430.6 668.467 1427.71 671.127 1423.97 673.46C1420.33 675.793 1415.85 676.96 1410.53 676.96C1403.53 676.96 1398.03 675.093 1394.01 671.36C1390 667.627 1387.99 662.353 1387.99 655.54C1387.99 637.9 1402.97 628.847 1432.93 628.38C1432.65 625.207 1431.44 623.06 1429.29 621.94C1427.15 620.727 1423.51 620.12 1418.37 620.12C1414.17 620.12 1409.65 620.587 1404.79 621.52C1400.03 622.36 1395.65 623.527 1391.63 625.02V599.26C1396.58 598.047 1401.95 597.067 1407.73 596.32C1413.52 595.573 1419.17 595.2 1424.67 595.2C1438.58 595.2 1448.52 597.72 1454.49 602.76C1460.47 607.8 1463.45 615.593 1463.45 626.14V652.04H1469.61ZM1432.65 642.24C1428.45 642.24 1425.19 642.8 1422.85 643.92C1420.61 645.04 1419.49 646.907 1419.49 649.52C1419.49 651.107 1419.96 652.413 1420.89 653.44C1421.92 654.373 1423.32 654.84 1425.09 654.84C1427.52 654.84 1429.39 653.813 1430.69 651.76C1432 649.707 1432.65 646.813 1432.65 643.08V642.24ZM1515.15 708.04C1508.43 708.04 1501.99 707.573 1495.83 706.64C1489.76 705.707 1485.05 704.633 1481.69 703.42V680.46C1491.58 682.233 1500.45 683.12 1508.29 683.12C1513.61 683.12 1517.43 682.28 1519.77 680.6C1522.19 679.013 1523.41 675.98 1523.41 671.5V665.48C1521.07 668.467 1518.04 671.127 1514.31 673.46C1510.67 675.793 1506.47 676.96 1501.71 676.96C1492.19 676.96 1485 673.413 1480.15 666.32C1475.39 659.227 1473.01 649.147 1473.01 636.08C1473.01 623.013 1475.39 612.933 1480.15 605.84C1485 598.747 1492.19 595.2 1501.71 595.2C1506.47 595.2 1510.67 596.367 1514.31 598.7C1518.04 601.033 1521.07 603.693 1523.41 606.68V597.16H1561.77V620.12H1555.61V669.4C1555.61 682.933 1552.25 692.733 1545.53 698.8C1538.81 704.96 1528.68 708.04 1515.15 708.04ZM1515.29 652.04C1517.99 652.04 1520 651.34 1521.31 649.94C1522.71 648.447 1523.41 646.16 1523.41 643.08V629.08C1523.41 626 1522.71 623.76 1521.31 622.36C1520 620.867 1517.99 620.12 1515.29 620.12C1512.58 620.12 1510.53 620.867 1509.13 622.36C1507.82 623.76 1507.17 626 1507.17 629.08V643.08C1507.17 646.16 1507.82 648.447 1509.13 649.94C1510.53 651.34 1512.58 652.04 1515.29 652.04ZM1607.45 676.96C1594.19 676.96 1583.83 673.507 1576.37 666.6C1568.9 659.6 1565.17 649.427 1565.17 636.08C1565.17 622.733 1568.9 612.607 1576.37 605.7C1583.83 598.7 1594.19 595.2 1607.45 595.2C1620.61 595.2 1630.08 598.653 1635.87 605.56C1641.75 612.373 1644.69 620.867 1644.69 631.04V641.12H1599.33V641.96C1599.33 645.413 1600.35 647.98 1602.41 649.66C1604.46 651.247 1607.87 652.04 1612.63 652.04C1618.32 652.04 1623.73 651.62 1628.87 650.78C1634 649.94 1638.48 648.867 1642.31 647.56V669.96C1639.04 671.733 1634.23 673.367 1627.89 674.86C1621.63 676.26 1614.82 676.96 1607.45 676.96ZM1615.57 625.72V624.04C1615.57 620.867 1614.87 618.58 1613.47 617.18C1612.16 615.78 1610.15 615.08 1607.45 615.08C1604.74 615.08 1602.69 615.827 1601.29 617.32C1599.98 618.72 1599.33 620.96 1599.33 624.04V625.72H1615.57Z" fill="black"/>
<path d="M404.317 809.248L708.483 644.007L779.129 681.877L773.618 684.871L436.301 868.121L404.317 885.497L372.334 868.121L35.0176 684.871L22.834 678.253L97.1953 642.401L404.317 809.248ZM808.635 640.963L741.635 605.047V285.39L808.635 244.62V640.963ZM427 131.565V455.137L695 608.096L640.305 639L405.733 503.996L170.006 639L113 608.096L384 455.257V131.565L406 117L427 131.565ZM67.001 289.633V601.451L0 633.754V253.716L67.001 289.633ZM436.301 17.375L773.618 200.625L779.499 203.819L713.297 244.104L404.317 76.248L91.6416 246.111L20.9961 208.241L35.0176 200.625L372.334 17.375L404.317 0L436.301 17.375Z" fill="black"/>
</svg>
