<svg width="1024" height="1024" viewBox="0 0 1024 1024" fill="none" xmlns="http://www.w3.org/2000/svg">
<rect width="1024" height="1024" fill="black"/>
<path d="M512.317 878.248L816.483 713.007L887.129 750.877L881.618 753.871L544.301 937.121L512.317 954.497L480.334 937.121L143.018 753.871L130.834 747.253L205.195 711.401L512.317 878.248ZM916.635 709.963L849.635 674.047V354.39L916.635 313.62V709.963ZM535 200.565V524.137L803 677.096L748.305 708L513.733 572.996L278.006 708L221 677.096L492 524.257V200.565L514 186L535 200.565ZM175.001 358.633V670.451L108 702.754V322.716L175.001 358.633ZM544.301 86.375L881.618 269.625L887.499 272.819L821.297 313.104L512.317 145.248L199.642 315.111L128.996 277.241L143.018 269.625L480.334 86.375L512.317 69L544.301 86.375Z" fill="white"/>
</svg>
