<svg width="809" height="886" viewBox="0 0 809 886" fill="none" xmlns="http://www.w3.org/2000/svg">
<path d="M404.317 809.248L708.483 644.007L779.129 681.877L773.618 684.871L436.301 868.121L404.317 885.497L372.334 868.121L35.0176 684.871L22.834 678.253L97.1953 642.401L404.317 809.248ZM808.635 640.963L741.635 605.047V285.39L808.635 244.62V640.963ZM427 131.565V455.137L695 608.096L640.305 639L405.733 503.996L170.006 639L113 608.096L384 455.257V131.565L406 117L427 131.565ZM67.001 289.633V601.451L0 633.754V253.716L67.001 289.633ZM436.301 17.375L773.618 200.625L779.499 203.819L713.297 244.104L404.317 76.248L91.6416 246.111L20.9961 208.241L35.0176 200.625L372.334 17.375L404.317 0L436.301 17.375Z" fill="white"/>
</svg>
