<svg width="809" height="886" viewBox="0 0 809 886" fill="none" xmlns="http://www.w3.org/2000/svg">
<mask id="path-1-inside-1_21_96" fill="white">
<path d="M404.317 809.248L708.483 644.007L779.129 681.877L773.618 684.871L436.301 868.121L404.317 885.497L372.334 868.121L35.0176 684.871L22.834 678.253L97.1953 642.401L404.317 809.248ZM808.635 640.963L741.635 605.047V285.39L808.635 244.62V640.963ZM433 145.565V458.562L695 608.096L640.305 639L405.733 503.996L170.006 639L113 608.096L376 459.769V145.565L405.163 131L433 145.565ZM67.001 289.633V601.451L0 633.754V253.716L67.001 289.633ZM436.301 17.375L773.618 200.625L779.499 203.819L713.297 244.104L404.317 76.248L91.6416 246.111L20.9961 208.241L35.0176 200.625L372.334 17.375L404.317 0L436.301 17.375Z"/>
</mask>
<path d="M404.317 809.248L708.483 644.007L779.129 681.877L773.618 684.871L436.301 868.121L404.317 885.497L372.334 868.121L35.0176 684.871L22.834 678.253L97.1953 642.401L404.317 809.248ZM808.635 640.963L741.635 605.047V285.39L808.635 244.62V640.963ZM433 145.565V458.562L695 608.096L640.305 639L405.733 503.996L170.006 639L113 608.096L376 459.769V145.565L405.163 131L433 145.565ZM67.001 289.633V601.451L0 633.754V253.716L67.001 289.633ZM436.301 17.375L773.618 200.625L779.499 203.819L713.297 244.104L404.317 76.248L91.6416 246.111L20.9961 208.241L35.0176 200.625L372.334 17.375L404.317 0L436.301 17.375Z" fill="black"/>
<path d="M404.317 809.248L403.84 810.127L404.317 810.386L404.795 810.127L404.317 809.248ZM708.483 644.007L708.956 643.125L708.48 642.871L708.006 643.128L708.483 644.007ZM779.129 681.877L779.606 682.756L781.234 681.871L779.601 680.996L779.129 681.877ZM773.618 684.871L774.096 685.75L774.096 685.75L773.618 684.871ZM436.301 868.121L435.823 867.242H435.823L436.301 868.121ZM404.317 885.497L403.84 886.376L404.317 886.635L404.795 886.376L404.317 885.497ZM372.334 868.121L372.811 867.242H372.811L372.334 868.121ZM35.0176 684.871L35.4949 683.992H35.4949L35.0176 684.871ZM22.834 678.253L22.3997 677.352L20.6414 678.2L22.3567 679.132L22.834 678.253ZM97.1953 642.401L97.6727 641.523L97.2225 641.278L96.761 641.501L97.1953 642.401ZM808.635 640.963L808.162 641.844L809.635 642.634V640.963H808.635ZM741.635 605.047H740.635V605.645L741.162 605.928L741.635 605.047ZM741.635 285.39L741.115 284.535L740.635 284.828V285.39H741.635ZM808.635 244.62H809.635V242.841L808.115 243.766L808.635 244.62ZM433 145.565H434V144.96L433.464 144.679L433 145.565ZM433 458.562H432V459.142L432.504 459.43L433 458.562ZM695 608.096L695.492 608.966L697.025 608.1L695.496 607.227L695 608.096ZM640.305 639L639.806 639.867L640.3 640.151L640.797 639.871L640.305 639ZM405.733 503.996L406.232 503.129L405.735 502.843L405.236 503.128L405.733 503.996ZM170.006 639L169.529 639.879L170.019 640.145L170.503 639.868L170.006 639ZM113 608.096L112.509 607.225L110.934 608.113L112.523 608.975L113 608.096ZM376 459.769L376.491 460.64L377 460.353V459.769H376ZM376 145.565L375.553 144.671L375 144.947V145.565H376ZM405.163 131L405.627 130.114L405.174 129.877L404.716 130.105L405.163 131ZM67.001 289.633H68.001V289.034L67.4734 288.751L67.001 289.633ZM67.001 601.451L67.4353 602.352L68.001 602.079V601.451H67.001ZM0 633.754H-1V635.346L0.434285 634.655L0 633.754ZM0 253.716L0.472463 252.834L-1 252.045V253.716H0ZM436.301 17.375L436.778 16.4963V16.4963L436.301 17.375ZM773.618 200.625L773.141 201.504L773.141 201.504L773.618 200.625ZM779.499 203.819L780.019 204.674L781.504 203.77L779.976 202.941L779.499 203.819ZM713.297 244.104L712.82 244.982L713.325 245.257L713.817 244.958L713.297 244.104ZM404.317 76.248L404.795 75.3693L404.317 75.11L403.84 75.3693L404.317 76.248ZM91.6416 246.111L91.1691 246.993L91.6448 247.248L92.119 246.99L91.6416 246.111ZM20.9961 208.241L20.5188 207.362L18.8903 208.247L20.5236 209.123L20.9961 208.241ZM35.0176 200.625L35.4949 201.504L35.4949 201.504L35.0176 200.625ZM372.334 17.375L371.857 16.4963V16.4963L372.334 17.375ZM404.317 0L404.795 -0.878708L404.317 -1.13803L403.84 -0.878708L404.317 0ZM404.317 809.248L404.795 810.127L708.961 644.886L708.483 644.007L708.006 643.128L403.84 808.369L404.317 809.248ZM708.483 644.007L708.011 644.888L778.656 682.758L779.129 681.877L779.601 680.996L708.956 643.125L708.483 644.007ZM779.129 681.877L778.651 680.998L773.141 683.992L773.618 684.871L774.096 685.75L779.606 682.756L779.129 681.877ZM773.618 684.871L773.141 683.992L435.823 867.242L436.301 868.121L436.778 869L774.096 685.75L773.618 684.871ZM436.301 868.121L435.823 867.242L403.84 884.618L404.317 885.497L404.795 886.376L436.778 869L436.301 868.121ZM404.317 885.497L404.795 884.618L372.811 867.242L372.334 868.121L371.857 869L403.84 886.376L404.317 885.497ZM372.334 868.121L372.811 867.242L35.4949 683.992L35.0176 684.871L34.5402 685.75L371.857 869L372.334 868.121ZM35.0176 684.871L35.4949 683.992L23.3113 677.374L22.834 678.253L22.3567 679.132L34.5403 685.75L35.0176 684.871ZM22.834 678.253L23.2683 679.154L97.6296 643.302L97.1953 642.401L96.761 641.501L22.3997 677.352L22.834 678.253ZM97.1953 642.401L96.7179 643.28L403.84 810.127L404.317 809.248L404.795 808.369L97.6727 641.523L97.1953 642.401ZM808.635 640.963L809.107 640.082L742.107 604.166L741.635 605.047L741.162 605.928L808.162 641.844L808.635 640.963ZM741.635 605.047H742.635V285.39H741.635H740.635V605.047H741.635ZM741.635 285.39L742.155 286.244L809.155 245.474L808.635 244.62L808.115 243.766L741.115 284.535L741.635 285.39ZM808.635 244.62H807.635V640.963H808.635H809.635V244.62H808.635ZM433 145.565H432V458.562H433H434V145.565H433ZM433 458.562L432.504 459.43L694.504 608.964L695 608.096L695.496 607.227L433.496 457.693L433 458.562ZM695 608.096L694.508 607.225L639.813 638.129L640.305 639L640.797 639.871L695.492 608.966L695 608.096ZM640.305 639L640.804 638.133L406.232 503.129L405.733 503.996L405.235 504.863L639.806 639.867L640.305 639ZM405.733 503.996L405.236 503.128L169.509 638.132L170.006 639L170.503 639.868L406.23 504.864L405.733 503.996ZM170.006 639L170.482 638.121L113.477 607.217L113 608.096L112.523 608.975L169.529 639.879L170.006 639ZM113 608.096L113.491 608.967L376.491 460.64L376 459.769L375.509 458.898L112.509 607.225L113 608.096ZM376 459.769H377V145.565H376H375V459.769H376ZM376 145.565L376.447 146.46L405.61 131.895L405.163 131L404.716 130.105L375.553 144.671L376 145.565ZM405.163 131L404.699 131.886L432.536 146.451L433 145.565L433.464 144.679L405.627 130.114L405.163 131ZM67.001 289.633H66.001V601.451H67.001H68.001V289.633H67.001ZM67.001 601.451L66.5667 600.55L-0.434285 632.853L0 633.754L0.434285 634.655L67.4353 602.352L67.001 601.451ZM0 633.754H1V253.716H0H-1V633.754H0ZM0 253.716L-0.472463 254.597L66.5285 290.514L67.001 289.633L67.4734 288.751L0.472463 252.834L0 253.716ZM436.301 17.375L435.823 18.2537L773.141 201.504L773.618 200.625L774.096 199.746L436.778 16.4963L436.301 17.375ZM773.618 200.625L773.141 201.504L779.022 204.698L779.499 203.819L779.976 202.941L774.095 199.746L773.618 200.625ZM779.499 203.819L778.979 202.965L712.777 243.249L713.297 244.104L713.817 244.958L780.019 204.674L779.499 203.819ZM713.297 244.104L713.774 243.225L404.795 75.3693L404.317 76.248L403.84 77.1268L712.82 244.982L713.297 244.104ZM404.317 76.248L403.84 75.3693L91.1642 245.233L91.6416 246.111L92.119 246.99L404.795 77.1268L404.317 76.248ZM91.6416 246.111L92.1141 245.23L21.4686 207.36L20.9961 208.241L20.5236 209.123L91.1691 246.993L91.6416 246.111ZM20.9961 208.241L21.4734 209.12L35.4949 201.504L35.0176 200.625L34.5403 199.746L20.5188 207.362L20.9961 208.241ZM35.0176 200.625L35.4949 201.504L372.811 18.2537L372.334 17.375L371.857 16.4963L34.5402 199.746L35.0176 200.625ZM372.334 17.375L372.811 18.2537L404.795 0.878708L404.317 0L403.84 -0.878708L371.857 16.4963L372.334 17.375ZM404.317 0L403.84 0.878708L435.823 18.2537L436.301 17.375L436.778 16.4963L404.795 -0.878708L404.317 0Z" fill="black" mask="url(#path-1-inside-1_21_96)"/>
</svg>
