<svg width="2184" height="886" viewBox="0 0 2184 886" fill="none" xmlns="http://www.w3.org/2000/svg">
<path d="M921.616 251.04H928.616V188.18H921.616V165.08H978.456C994.043 165.08 1006.41 169.373 1015.56 177.96C1024.8 186.453 1029.42 200.313 1029.42 219.54C1029.42 238.767 1024.8 252.673 1015.56 261.26C1006.41 269.753 994.043 274 978.456 274H921.616V251.04ZM975.936 251.04C979.11 251.04 981.49 250.2 983.076 248.52C984.663 246.84 985.456 244.227 985.456 240.68V198.4C985.456 191.493 982.283 188.04 975.936 188.04H967.816V251.04H975.936ZM1115.48 251.04V274H1078.52V264.48C1076.46 267.467 1073.57 270.127 1069.84 272.46C1066.2 274.793 1061.72 275.96 1056.4 275.96C1049.4 275.96 1043.89 274.093 1039.88 270.36C1035.86 266.627 1033.86 261.353 1033.86 254.54C1033.86 236.9 1048.84 227.847 1078.8 227.38C1078.52 224.207 1077.3 222.06 1075.16 220.94C1073.01 219.727 1069.37 219.12 1064.24 219.12C1060.04 219.12 1055.51 219.587 1050.66 220.52C1045.9 221.36 1041.51 222.527 1037.5 224.02V198.26C1042.44 197.047 1047.81 196.067 1053.6 195.32C1059.38 194.573 1065.03 194.2 1070.54 194.2C1084.44 194.2 1094.38 196.72 1100.36 201.76C1106.33 206.8 1109.32 214.593 1109.32 225.14V251.04H1115.48ZM1078.52 241.24C1074.32 241.24 1071.05 241.8 1068.72 242.92C1066.48 244.04 1065.36 245.907 1065.36 248.52C1065.36 250.107 1065.82 251.413 1066.76 252.44C1067.78 253.373 1069.18 253.84 1070.96 253.84C1073.38 253.84 1075.25 252.813 1076.56 250.76C1077.86 248.707 1078.52 245.813 1078.52 242.08V241.24ZM1154.01 275.96C1142.25 275.96 1130.91 274.093 1119.99 270.36V249.64H1142.67V251.04C1142.67 255.52 1145.52 257.76 1151.21 257.76C1156.25 257.76 1158.77 256.033 1158.77 252.58C1158.77 250.713 1158.02 249.313 1156.53 248.38C1155.13 247.447 1152.61 246.653 1148.97 246L1141.97 244.74C1127.32 242.127 1119.99 233.82 1119.99 219.82C1119.99 211.7 1123.07 205.4 1129.23 200.92C1135.39 196.44 1143.7 194.2 1154.15 194.2C1165.82 194.2 1175.66 196.16 1183.69 200.08V219.54H1162.41V218.14C1162.41 216.273 1161.76 214.873 1160.45 213.94C1159.24 212.913 1157.42 212.4 1154.99 212.4C1150.32 212.4 1147.99 213.893 1147.99 216.88C1147.99 218.467 1148.64 219.68 1149.95 220.52C1151.26 221.36 1153.64 222.153 1157.09 222.9L1165.07 224.44C1173.38 226.027 1179.3 228.967 1182.85 233.26C1186.4 237.553 1188.17 243.06 1188.17 249.78C1188.17 258.273 1185.18 264.76 1179.21 269.24C1173.33 273.72 1164.93 275.96 1154.01 275.96ZM1285.55 251.04V274H1241.31V251.04H1247.19V228.08C1247.19 225 1246.53 222.76 1245.23 221.36C1243.92 219.867 1241.96 219.12 1239.35 219.12C1233.75 219.12 1230.95 222.107 1230.95 228.08V251.04H1236.83V274H1192.59V251.04H1198.75V188.04H1192.59V165.08H1230.95V207.08C1234.4 202.787 1238.13 199.567 1242.15 197.42C1246.16 195.273 1250.83 194.2 1256.15 194.2C1263.89 194.2 1269.68 196.627 1273.51 201.48C1277.43 206.333 1279.39 213.007 1279.39 221.5V251.04H1285.55ZM921.616 443.04H928.616V380.04H921.616V357.08H983.076C995.116 357.08 1004.31 359.693 1010.66 364.92C1017 370.053 1020.18 378.407 1020.18 389.98C1020.18 401.553 1017 409.953 1010.66 415.18C1004.31 420.313 995.116 422.88 983.076 422.88H967.816V443.04H981.256V466H921.616V443.04ZM972.576 403C977.99 403 980.696 400.013 980.696 394.04V389C980.696 385.92 979.996 383.68 978.596 382.28C977.29 380.787 975.283 380.04 972.576 380.04H967.816V403H972.576ZM1084.48 386.2C1086.34 386.2 1088.12 386.387 1089.8 386.76C1091.48 387.133 1092.88 387.6 1094 388.16V414.9C1090.17 413.313 1086.06 412.52 1081.68 412.52C1075.8 412.52 1071.27 414.06 1068.1 417.14C1064.92 420.22 1063.34 424.793 1063.34 430.86V443.04H1075.94V466H1024.98V443.04H1031.14V411.12H1024.98V388.16H1063.34V398.38C1065.95 394.46 1068.94 391.473 1072.3 389.42C1075.66 387.273 1079.72 386.2 1084.48 386.2ZM1140.24 467.96C1126.99 467.96 1116.63 464.507 1109.16 457.6C1101.7 450.6 1097.96 440.427 1097.96 427.08C1097.96 413.733 1101.7 403.607 1109.16 396.7C1116.63 389.7 1126.99 386.2 1140.24 386.2C1153.68 386.2 1164.09 389.747 1171.46 396.84C1178.84 403.84 1182.52 413.92 1182.52 427.08C1182.52 440.427 1178.79 450.6 1171.32 457.6C1163.86 464.507 1153.5 467.96 1140.24 467.96ZM1140.24 443.04C1142.95 443.04 1144.96 442.34 1146.26 440.94C1147.66 439.447 1148.36 437.16 1148.36 434.08V420.08C1148.36 417 1147.66 414.76 1146.26 413.36C1144.96 411.867 1142.95 411.12 1140.24 411.12C1137.54 411.12 1135.48 411.867 1134.08 413.36C1132.78 414.76 1132.12 417 1132.12 420.08V434.08C1132.12 437.16 1132.78 439.447 1134.08 440.94C1135.48 442.34 1137.54 443.04 1140.24 443.04ZM1228 499.04C1221.28 499.04 1214.84 498.573 1208.68 497.64C1202.61 496.707 1197.9 495.633 1194.54 494.42V471.46C1204.43 473.233 1213.3 474.12 1221.14 474.12C1226.46 474.12 1230.29 473.28 1232.62 471.6C1235.05 470.013 1236.26 466.98 1236.26 462.5V456.48C1233.93 459.467 1230.89 462.127 1227.16 464.46C1223.52 466.793 1219.32 467.96 1214.56 467.96C1205.04 467.96 1197.85 464.413 1193 457.32C1188.24 450.227 1185.86 440.147 1185.86 427.08C1185.86 414.013 1188.24 403.933 1193 396.84C1197.85 389.747 1205.04 386.2 1214.56 386.2C1219.32 386.2 1223.52 387.367 1227.16 389.7C1230.89 392.033 1233.93 394.693 1236.26 397.68V388.16H1274.62V411.12H1268.46V460.4C1268.46 473.933 1265.1 483.733 1258.38 489.8C1251.66 495.96 1241.53 499.04 1228 499.04ZM1228.14 443.04C1230.85 443.04 1232.85 442.34 1234.16 440.94C1235.56 439.447 1236.26 437.16 1236.26 434.08V420.08C1236.26 417 1235.56 414.76 1234.16 413.36C1232.85 411.867 1230.85 411.12 1228.14 411.12C1225.43 411.12 1223.38 411.867 1221.98 413.36C1220.67 414.76 1220.02 417 1220.02 420.08V434.08C1220.02 437.16 1220.67 439.447 1221.98 440.94C1223.38 442.34 1225.43 443.04 1228.14 443.04ZM1338.36 386.2C1340.23 386.2 1342 386.387 1343.68 386.76C1345.36 387.133 1346.76 387.6 1347.88 388.16V414.9C1344.06 413.313 1339.95 412.52 1335.56 412.52C1329.68 412.52 1325.16 414.06 1321.98 417.14C1318.81 420.22 1317.22 424.793 1317.22 430.86V443.04H1329.82V466H1278.86V443.04H1285.02V411.12H1278.86V388.16H1317.22V398.38C1319.84 394.46 1322.82 391.473 1326.18 389.42C1329.54 387.273 1333.6 386.2 1338.36 386.2ZM1434.03 443.04V466H1397.07V456.48C1395.02 459.467 1392.12 462.127 1388.39 464.46C1384.75 466.793 1380.27 467.96 1374.95 467.96C1367.95 467.96 1362.44 466.093 1358.43 462.36C1354.42 458.627 1352.41 453.353 1352.41 446.54C1352.41 428.9 1367.39 419.847 1397.35 419.38C1397.07 416.207 1395.86 414.06 1393.71 412.94C1391.56 411.727 1387.92 411.12 1382.79 411.12C1378.59 411.12 1374.06 411.587 1369.21 412.52C1364.45 413.36 1360.06 414.527 1356.05 416.02V390.26C1361 389.047 1366.36 388.067 1372.15 387.32C1377.94 386.573 1383.58 386.2 1389.09 386.2C1403 386.2 1412.94 388.72 1418.91 393.76C1424.88 398.8 1427.87 406.593 1427.87 417.14V443.04H1434.03ZM1397.07 433.24C1392.87 433.24 1389.6 433.8 1387.27 434.92C1385.03 436.04 1383.91 437.907 1383.91 440.52C1383.91 442.107 1384.38 443.413 1385.31 444.44C1386.34 445.373 1387.74 445.84 1389.51 445.84C1391.94 445.84 1393.8 444.813 1395.11 442.76C1396.42 440.707 1397.07 437.813 1397.07 434.08V433.24ZM1579.94 443.04V466H1535.7V443.04H1541.58V420.08C1541.58 417 1540.93 414.76 1539.62 413.36C1538.32 411.867 1536.36 411.12 1533.74 411.12C1528.14 411.12 1525.34 414.107 1525.34 420.08V443.04H1531.22V466H1487.26V443.04H1493.14V420.08C1493.14 417 1492.49 414.76 1491.18 413.36C1489.88 411.867 1487.92 411.12 1485.3 411.12C1479.7 411.12 1476.9 414.107 1476.9 420.08V443.04H1482.78V466H1438.54V443.04H1444.7V411.12H1438.54V388.16H1476.9V399.08C1483.62 390.493 1492.02 386.2 1502.1 386.2C1507.8 386.2 1512.42 387.553 1515.96 390.26C1519.6 392.873 1522.17 396.607 1523.66 401.46C1527.02 396.607 1530.85 392.873 1535.14 390.26C1539.53 387.647 1544.66 386.34 1550.54 386.34C1558.29 386.34 1564.08 388.767 1567.9 393.62C1571.82 398.473 1573.78 405.147 1573.78 413.64V443.04H1579.94ZM1725.82 443.04V466H1681.58V443.04H1687.46V420.08C1687.46 417 1686.81 414.76 1685.5 413.36C1684.2 411.867 1682.24 411.12 1679.62 411.12C1674.02 411.12 1671.22 414.107 1671.22 420.08V443.04H1677.1V466H1633.14V443.04H1639.02V420.08C1639.02 417 1638.37 414.76 1637.06 413.36C1635.76 411.867 1633.8 411.12 1631.18 411.12C1625.58 411.12 1622.78 414.107 1622.78 420.08V443.04H1628.66V466H1584.42V443.04H1590.58V411.12H1584.42V388.16H1622.78V399.08C1629.5 390.493 1637.9 386.2 1647.98 386.2C1653.68 386.2 1658.3 387.553 1661.84 390.26C1665.48 392.873 1668.05 396.607 1669.54 401.46C1672.9 396.607 1676.73 392.873 1681.02 390.26C1685.41 387.647 1690.54 386.34 1696.42 386.34C1704.17 386.34 1709.96 388.767 1713.78 393.62C1717.7 398.473 1719.66 405.147 1719.66 413.64V443.04H1725.82ZM1737.02 380.46V357.08H1765.58V380.46H1737.02ZM1730.3 466V443.04H1736.46V411.12H1730.3V388.16H1768.66V443.04H1774.82V466H1730.3ZM1871.66 443.04V466H1827.42V443.04H1833.3V420.08C1833.3 417 1832.65 414.76 1831.34 413.36C1830.03 411.867 1828.07 411.12 1825.46 411.12C1819.86 411.12 1817.06 414.107 1817.06 420.08V443.04H1822.94V466H1778.7V443.04H1784.86V411.12H1778.7V388.16H1817.06V399.08C1823.78 390.493 1832.18 386.2 1842.26 386.2C1850.01 386.2 1855.79 388.627 1859.62 393.48C1863.54 398.333 1865.5 405.007 1865.5 413.5V443.04H1871.66ZM1917.2 499.04C1910.48 499.04 1904.04 498.573 1897.88 497.64C1891.81 496.707 1887.1 495.633 1883.74 494.42V471.46C1893.63 473.233 1902.5 474.12 1910.34 474.12C1915.66 474.12 1919.49 473.28 1921.82 471.6C1924.25 470.013 1925.46 466.98 1925.46 462.5V456.48C1923.13 459.467 1920.09 462.127 1916.36 464.46C1912.72 466.793 1908.52 467.96 1903.76 467.96C1894.24 467.96 1887.05 464.413 1882.2 457.32C1877.44 450.227 1875.06 440.147 1875.06 427.08C1875.06 414.013 1877.44 403.933 1882.2 396.84C1887.05 389.747 1894.24 386.2 1903.76 386.2C1908.52 386.2 1912.72 387.367 1916.36 389.7C1920.09 392.033 1923.13 394.693 1925.46 397.68V388.16H1963.82V411.12H1957.66V460.4C1957.66 473.933 1954.3 483.733 1947.58 489.8C1940.86 495.96 1930.73 499.04 1917.2 499.04ZM1917.34 443.04C1920.05 443.04 1922.05 442.34 1923.36 440.94C1924.76 439.447 1925.46 437.16 1925.46 434.08V420.08C1925.46 417 1924.76 414.76 1923.36 413.36C1922.05 411.867 1920.05 411.12 1917.34 411.12C1914.63 411.12 1912.58 411.867 1911.18 413.36C1909.87 414.76 1909.22 417 1909.22 420.08V434.08C1909.22 437.16 1909.87 439.447 1911.18 440.94C1912.58 442.34 1914.63 443.04 1917.34 443.04ZM921.616 658V635.04H928.616V572.04H921.616V549.08H980.696V572.04H967.816V635.04H980.416V622.16H1008.28V658H921.616ZM1094.42 635.04V658H1057.46V648.48C1055.41 651.467 1052.51 654.127 1048.78 656.46C1045.14 658.793 1040.66 659.96 1035.34 659.96C1028.34 659.96 1022.83 658.093 1018.82 654.36C1014.81 650.627 1012.8 645.353 1012.8 638.54C1012.8 620.9 1027.78 611.847 1057.74 611.38C1057.46 608.207 1056.25 606.06 1054.1 604.94C1051.95 603.727 1048.31 603.12 1043.18 603.12C1038.98 603.12 1034.45 603.587 1029.6 604.52C1024.84 605.36 1020.45 606.527 1016.44 608.02V582.26C1021.39 581.047 1026.75 580.067 1032.54 579.32C1038.33 578.573 1043.97 578.2 1049.48 578.2C1063.39 578.2 1073.33 580.72 1079.3 585.76C1085.27 590.8 1088.26 598.593 1088.26 609.14V635.04H1094.42ZM1057.46 625.24C1053.26 625.24 1049.99 625.8 1047.66 626.92C1045.42 628.04 1044.3 629.907 1044.3 632.52C1044.3 634.107 1044.77 635.413 1045.7 636.44C1046.73 637.373 1048.13 637.84 1049.9 637.84C1052.33 637.84 1054.19 636.813 1055.5 634.76C1056.81 632.707 1057.46 629.813 1057.46 626.08V625.24ZM1191.89 635.04V658H1147.65V635.04H1153.53V612.08C1153.53 609 1152.88 606.76 1151.57 605.36C1150.27 603.867 1148.31 603.12 1145.69 603.12C1140.09 603.12 1137.29 606.107 1137.29 612.08V635.04H1143.17V658H1098.93V635.04H1105.09V603.12H1098.93V580.16H1137.29V591.08C1144.01 582.493 1152.41 578.2 1162.49 578.2C1170.24 578.2 1176.03 580.627 1179.85 585.48C1183.77 590.333 1185.73 597.007 1185.73 605.5V635.04H1191.89ZM1237.43 691.04C1230.71 691.04 1224.27 690.573 1218.11 689.64C1212.05 688.707 1207.33 687.633 1203.97 686.42V663.46C1213.87 665.233 1222.73 666.12 1230.57 666.12C1235.89 666.12 1239.72 665.28 1242.05 663.6C1244.48 662.013 1245.69 658.98 1245.69 654.5V648.48C1243.36 651.467 1240.33 654.127 1236.59 656.46C1232.95 658.793 1228.75 659.96 1223.99 659.96C1214.47 659.96 1207.29 656.413 1202.43 649.32C1197.67 642.227 1195.29 632.147 1195.29 619.08C1195.29 606.013 1197.67 595.933 1202.43 588.84C1207.29 581.747 1214.47 578.2 1223.99 578.2C1228.75 578.2 1232.95 579.367 1236.59 581.7C1240.33 584.033 1243.36 586.693 1245.69 589.68V580.16H1284.05V603.12H1277.89V652.4C1277.89 665.933 1274.53 675.733 1267.81 681.8C1261.09 687.96 1250.97 691.04 1237.43 691.04ZM1237.57 635.04C1240.28 635.04 1242.29 634.34 1243.59 632.94C1244.99 631.447 1245.69 629.16 1245.69 626.08V612.08C1245.69 609 1244.99 606.76 1243.59 605.36C1242.29 603.867 1240.28 603.12 1237.57 603.12C1234.87 603.12 1232.81 603.867 1231.41 605.36C1230.11 606.76 1229.45 609 1229.45 612.08V626.08C1229.45 629.16 1230.11 631.447 1231.41 632.94C1232.81 634.34 1234.87 635.04 1237.57 635.04ZM1380.14 635.04V658H1341.78V647.08C1335.06 655.667 1326.66 659.96 1316.58 659.96C1308.83 659.96 1303 657.533 1299.08 652.68C1295.25 647.827 1293.34 641.153 1293.34 632.66V603.12H1287.18V580.16H1325.54V626.08C1325.54 629.16 1326.19 631.447 1327.5 632.94C1328.9 634.34 1330.95 635.04 1333.66 635.04C1336.36 635.04 1338.37 634.34 1339.68 632.94C1341.08 631.447 1341.78 629.16 1341.78 626.08V603.12H1334.22V580.16H1373.98V635.04H1380.14ZM1465.61 635.04V658H1428.65V648.48C1426.6 651.467 1423.71 654.127 1419.97 656.46C1416.33 658.793 1411.85 659.96 1406.53 659.96C1399.53 659.96 1394.03 658.093 1390.01 654.36C1386 650.627 1383.99 645.353 1383.99 638.54C1383.99 620.9 1398.97 611.847 1428.93 611.38C1428.65 608.207 1427.44 606.06 1425.29 604.94C1423.15 603.727 1419.51 603.12 1414.37 603.12C1410.17 603.12 1405.65 603.587 1400.79 604.52C1396.03 605.36 1391.65 606.527 1387.63 608.02V582.26C1392.58 581.047 1397.95 580.067 1403.73 579.32C1409.52 578.573 1415.17 578.2 1420.67 578.2C1434.58 578.2 1444.52 580.72 1450.49 585.76C1456.47 590.8 1459.45 598.593 1459.45 609.14V635.04H1465.61ZM1428.65 625.24C1424.45 625.24 1421.19 625.8 1418.85 626.92C1416.61 628.04 1415.49 629.907 1415.49 632.52C1415.49 634.107 1415.96 635.413 1416.89 636.44C1417.92 637.373 1419.32 637.84 1421.09 637.84C1423.52 637.84 1425.39 636.813 1426.69 634.76C1428 632.707 1428.65 629.813 1428.65 626.08V625.24ZM1511.15 691.04C1504.43 691.04 1497.99 690.573 1491.83 689.64C1485.76 688.707 1481.05 687.633 1477.69 686.42V663.46C1487.58 665.233 1496.45 666.12 1504.29 666.12C1509.61 666.12 1513.43 665.28 1515.77 663.6C1518.19 662.013 1519.41 658.98 1519.41 654.5V648.48C1517.07 651.467 1514.04 654.127 1510.31 656.46C1506.67 658.793 1502.47 659.96 1497.71 659.96C1488.19 659.96 1481 656.413 1476.15 649.32C1471.39 642.227 1469.01 632.147 1469.01 619.08C1469.01 606.013 1471.39 595.933 1476.15 588.84C1481 581.747 1488.19 578.2 1497.71 578.2C1502.47 578.2 1506.67 579.367 1510.31 581.7C1514.04 584.033 1517.07 586.693 1519.41 589.68V580.16H1557.77V603.12H1551.61V652.4C1551.61 665.933 1548.25 675.733 1541.53 681.8C1534.81 687.96 1524.68 691.04 1511.15 691.04ZM1511.29 635.04C1513.99 635.04 1516 634.34 1517.31 632.94C1518.71 631.447 1519.41 629.16 1519.41 626.08V612.08C1519.41 609 1518.71 606.76 1517.31 605.36C1516 603.867 1513.99 603.12 1511.29 603.12C1508.58 603.12 1506.53 603.867 1505.13 605.36C1503.82 606.76 1503.17 609 1503.17 612.08V626.08C1503.17 629.16 1503.82 631.447 1505.13 632.94C1506.53 634.34 1508.58 635.04 1511.29 635.04ZM1603.45 659.96C1590.19 659.96 1579.83 656.507 1572.37 649.6C1564.9 642.6 1561.17 632.427 1561.17 619.08C1561.17 605.733 1564.9 595.607 1572.37 588.7C1579.83 581.7 1590.19 578.2 1603.45 578.2C1616.61 578.2 1626.08 581.653 1631.87 588.56C1637.75 595.373 1640.69 603.867 1640.69 614.04V624.12H1595.33V624.96C1595.33 628.413 1596.35 630.98 1598.41 632.66C1600.46 634.247 1603.87 635.04 1608.63 635.04C1614.32 635.04 1619.73 634.62 1624.87 633.78C1630 632.94 1634.48 631.867 1638.31 630.56V652.96C1635.04 654.733 1630.23 656.367 1623.89 657.86C1617.63 659.26 1610.82 659.96 1603.45 659.96ZM1611.57 608.72V607.04C1611.57 603.867 1610.87 601.58 1609.47 600.18C1608.16 598.78 1606.15 598.08 1603.45 598.08C1600.74 598.08 1598.69 598.827 1597.29 600.32C1595.98 601.72 1595.33 603.96 1595.33 607.04V608.72H1611.57Z" fill="white"/>
<path d="M404.317 809.248L709.41 643.504L780.055 681.374L773.618 684.871L436.301 868.121L404.317 885.497L372.334 868.121L35.0176 684.871L21.8594 677.723L96.2197 641.871L404.317 809.248ZM808.635 639.963L741.635 604.047V284.39L808.635 243.62V639.963ZM433 144.565V457.562L695 607.096L640.305 638L405.733 502.996L170.006 638L113 607.096L376 458.769V144.565L405.163 130L433 144.565ZM67.001 288.633V600.451L0 632.754V252.716L67.001 288.633ZM436.301 17.375L773.618 200.625L778.631 203.348L712.429 243.632L404.317 76.248L92.5674 245.607L21.9229 207.737L35.0176 200.625L372.334 17.375L404.317 0L436.301 17.375Z" fill="white"/>
</svg>
