<svg width="1992" height="733" viewBox="0 0 1992 733" fill="none" xmlns="http://www.w3.org/2000/svg">
<path d="M674.634 549.75L337.316 733L15.2871 558.055L60.1865 534.649L337.316 685.202L632.634 524.769V236.239L674.634 214.345V549.75ZM572.363 267.657C580.035 282.153 585.952 297.409 590.111 313.424C594.669 330.855 596.947 348.743 596.947 367.086C596.947 385.429 594.669 403.373 590.111 420.919C585.554 438.351 578.889 454.928 570.116 470.65C561.457 486.373 550.406 500.842 536.962 514.059C523.632 527.275 508.536 538.725 491.674 548.409C474.926 557.979 455.671 565.499 433.91 570.968C412.149 576.323 389.021 579 364.525 579H145.775V524.312H200.463V461.525L309.838 404.509V524.312H364.525C382.299 524.312 398.192 520.382 412.206 512.521C426.22 504.545 437.67 493.494 446.557 479.366C455.557 465.239 462.336 448.718 466.894 429.806C471.565 410.779 473.9 389.872 473.9 367.086C473.9 350.611 472.783 335.159 470.55 320.731L572.363 267.657ZM650.891 170.352L605.992 193.757L337.316 47.7969L42 208.229V487.76L0 509.654V183.25L337.316 0L650.891 170.352ZM364.525 155.172C389.021 155.172 412.149 157.906 433.91 163.375C455.671 168.73 474.926 176.249 491.674 185.934C508.536 195.504 523.632 206.897 536.962 220.113C539.095 222.21 541.168 224.34 543.181 226.5L456.444 271.714C450.73 259.02 443.732 248.2 435.448 239.254C427.017 229.911 416.763 222.677 404.687 217.55C392.61 212.423 379.223 209.859 364.525 209.859H309.838V348.139L200.463 405.155V209.859H145.775V155.172H364.525Z" fill="white"/>
<path d="M729.616 191.04H736.616V128.18H729.616V105.08H786.456C802.043 105.08 814.41 109.373 823.556 117.96C832.796 126.453 837.416 140.313 837.416 159.54C837.416 178.767 832.796 192.673 823.556 201.26C814.41 209.753 802.043 214 786.456 214H729.616V191.04ZM783.936 191.04C787.11 191.04 789.49 190.2 791.076 188.52C792.663 186.84 793.456 184.227 793.456 180.68V138.4C793.456 131.493 790.283 128.04 783.936 128.04H775.816V191.04H783.936ZM923.476 191.04V214H886.516V204.48C884.463 207.467 881.569 210.127 877.836 212.46C874.196 214.793 869.716 215.96 864.396 215.96C857.396 215.96 851.889 214.093 847.876 210.36C843.863 206.627 841.856 201.353 841.856 194.54C841.856 176.9 856.836 167.847 886.796 167.38C886.516 164.207 885.303 162.06 883.156 160.94C881.009 159.727 877.369 159.12 872.236 159.12C868.036 159.12 863.509 159.587 858.656 160.52C853.896 161.36 849.509 162.527 845.496 164.02V138.26C850.443 137.047 855.809 136.067 861.596 135.32C867.383 134.573 873.029 134.2 878.536 134.2C892.443 134.2 902.383 136.72 908.356 141.76C914.329 146.8 917.316 154.593 917.316 165.14V191.04H923.476ZM886.516 181.24C882.316 181.24 879.049 181.8 876.716 182.92C874.476 184.04 873.356 185.907 873.356 188.52C873.356 190.107 873.823 191.413 874.756 192.44C875.783 193.373 877.183 193.84 878.956 193.84C881.383 193.84 883.249 192.813 884.556 190.76C885.863 188.707 886.516 185.813 886.516 182.08V181.24ZM962.009 215.96C950.249 215.96 938.909 214.093 927.989 210.36V189.64H950.669V191.04C950.669 195.52 953.515 197.76 959.209 197.76C964.249 197.76 966.769 196.033 966.769 192.58C966.769 190.713 966.022 189.313 964.529 188.38C963.129 187.447 960.609 186.653 956.969 186L949.969 184.74C935.315 182.127 927.989 173.82 927.989 159.82C927.989 151.7 931.069 145.4 937.229 140.92C943.389 136.44 951.695 134.2 962.149 134.2C973.815 134.2 983.662 136.16 991.689 140.08V159.54H970.409V158.14C970.409 156.273 969.755 154.873 968.449 153.94C967.235 152.913 965.415 152.4 962.989 152.4C958.322 152.4 955.989 153.893 955.989 156.88C955.989 158.467 956.642 159.68 957.949 160.52C959.255 161.36 961.635 162.153 965.089 162.9L973.069 164.44C981.375 166.027 987.302 168.967 990.849 173.26C994.395 177.553 996.169 183.06 996.169 189.78C996.169 198.273 993.182 204.76 987.209 209.24C981.329 213.72 972.929 215.96 962.009 215.96ZM1093.55 191.04V214H1049.31V191.04H1055.19V168.08C1055.19 165 1054.53 162.76 1053.23 161.36C1051.92 159.867 1049.96 159.12 1047.35 159.12C1041.75 159.12 1038.95 162.107 1038.95 168.08V191.04H1044.83V214H1000.59V191.04H1006.75V128.04H1000.59V105.08H1038.95V147.08C1042.4 142.787 1046.13 139.567 1050.15 137.42C1054.16 135.273 1058.83 134.2 1064.15 134.2C1071.89 134.2 1077.68 136.627 1081.51 141.48C1085.43 146.333 1087.39 153.007 1087.39 161.5V191.04H1093.55ZM729.616 383.04H736.616V320.04H729.616V297.08H791.076C803.116 297.08 812.31 299.693 818.656 304.92C825.003 310.053 828.176 318.407 828.176 329.98C828.176 341.553 825.003 349.953 818.656 355.18C812.31 360.313 803.116 362.88 791.076 362.88H775.816V383.04H789.256V406H729.616V383.04ZM780.576 343C785.99 343 788.696 340.013 788.696 334.04V329C788.696 325.92 787.996 323.68 786.596 322.28C785.29 320.787 783.283 320.04 780.576 320.04H775.816V343H780.576ZM892.476 326.2C894.342 326.2 896.116 326.387 897.796 326.76C899.476 327.133 900.876 327.6 901.996 328.16V354.9C898.169 353.313 894.062 352.52 889.676 352.52C883.796 352.52 879.269 354.06 876.096 357.14C872.922 360.22 871.336 364.793 871.336 370.86V383.04H883.936V406H832.976V383.04H839.136V351.12H832.976V328.16H871.336V338.38C873.949 334.46 876.936 331.473 880.296 329.42C883.656 327.273 887.716 326.2 892.476 326.2ZM948.244 407.96C934.991 407.96 924.631 404.507 917.164 397.6C909.697 390.6 905.964 380.427 905.964 367.08C905.964 353.733 909.697 343.607 917.164 336.7C924.631 329.7 934.991 326.2 948.244 326.2C961.684 326.2 972.091 329.747 979.464 336.84C986.837 343.84 990.524 353.92 990.524 367.08C990.524 380.427 986.791 390.6 979.324 397.6C971.857 404.507 961.497 407.96 948.244 407.96ZM948.244 383.04C950.951 383.04 952.957 382.34 954.264 380.94C955.664 379.447 956.364 377.16 956.364 374.08V360.08C956.364 357 955.664 354.76 954.264 353.36C952.957 351.867 950.951 351.12 948.244 351.12C945.537 351.12 943.484 351.867 942.084 353.36C940.777 354.76 940.124 357 940.124 360.08V374.08C940.124 377.16 940.777 379.447 942.084 380.94C943.484 382.34 945.537 383.04 948.244 383.04ZM1036 439.04C1029.28 439.04 1022.84 438.573 1016.68 437.64C1010.61 436.707 1005.9 435.633 1002.54 434.42V411.46C1012.43 413.233 1021.3 414.12 1029.14 414.12C1034.46 414.12 1038.29 413.28 1040.62 411.6C1043.05 410.013 1044.26 406.98 1044.26 402.5V396.48C1041.93 399.467 1038.89 402.127 1035.16 404.46C1031.52 406.793 1027.32 407.96 1022.56 407.96C1013.04 407.96 1005.85 404.413 1001 397.32C996.241 390.227 993.861 380.147 993.861 367.08C993.861 354.013 996.241 343.933 1001 336.84C1005.85 329.747 1013.04 326.2 1022.56 326.2C1027.32 326.2 1031.52 327.367 1035.16 329.7C1038.89 332.033 1041.93 334.693 1044.26 337.68V328.16H1082.62V351.12H1076.46V400.4C1076.46 413.933 1073.1 423.733 1066.38 429.8C1059.66 435.96 1049.53 439.04 1036 439.04ZM1036.14 383.04C1038.85 383.04 1040.85 382.34 1042.16 380.94C1043.56 379.447 1044.26 377.16 1044.26 374.08V360.08C1044.26 357 1043.56 354.76 1042.16 353.36C1040.85 351.867 1038.85 351.12 1036.14 351.12C1033.43 351.12 1031.38 351.867 1029.98 353.36C1028.67 354.76 1028.02 357 1028.02 360.08V374.08C1028.02 377.16 1028.67 379.447 1029.98 380.94C1031.38 382.34 1033.43 383.04 1036.14 383.04ZM1146.36 326.2C1148.23 326.2 1150 326.387 1151.68 326.76C1153.36 327.133 1154.76 327.6 1155.88 328.16V354.9C1152.06 353.313 1147.95 352.52 1143.56 352.52C1137.68 352.52 1133.16 354.06 1129.98 357.14C1126.81 360.22 1125.22 364.793 1125.22 370.86V383.04H1137.82V406H1086.86V383.04H1093.02V351.12H1086.86V328.16H1125.22V338.38C1127.84 334.46 1130.82 331.473 1134.18 329.42C1137.54 327.273 1141.6 326.2 1146.36 326.2ZM1242.03 383.04V406H1205.07V396.48C1203.02 399.467 1200.12 402.127 1196.39 404.46C1192.75 406.793 1188.27 407.96 1182.95 407.96C1175.95 407.96 1170.44 406.093 1166.43 402.36C1162.42 398.627 1160.41 393.353 1160.41 386.54C1160.41 368.9 1175.39 359.847 1205.35 359.38C1205.07 356.207 1203.86 354.06 1201.71 352.94C1199.56 351.727 1195.92 351.12 1190.79 351.12C1186.59 351.12 1182.06 351.587 1177.21 352.52C1172.45 353.36 1168.06 354.527 1164.05 356.02V330.26C1169 329.047 1174.36 328.067 1180.15 327.32C1185.94 326.573 1191.58 326.2 1197.09 326.2C1211 326.2 1220.94 328.72 1226.91 333.76C1232.88 338.8 1235.87 346.593 1235.87 357.14V383.04H1242.03ZM1205.07 373.24C1200.87 373.24 1197.6 373.8 1195.27 374.92C1193.03 376.04 1191.91 377.907 1191.91 380.52C1191.91 382.107 1192.38 383.413 1193.31 384.44C1194.34 385.373 1195.74 385.84 1197.51 385.84C1199.94 385.84 1201.8 384.813 1203.11 382.76C1204.42 380.707 1205.07 377.813 1205.07 374.08V373.24ZM1387.94 383.04V406H1343.7V383.04H1349.58V360.08C1349.58 357 1348.93 354.76 1347.62 353.36C1346.32 351.867 1344.36 351.12 1341.74 351.12C1336.14 351.12 1333.34 354.107 1333.34 360.08V383.04H1339.22V406H1295.26V383.04H1301.14V360.08C1301.14 357 1300.49 354.76 1299.18 353.36C1297.88 351.867 1295.92 351.12 1293.3 351.12C1287.7 351.12 1284.9 354.107 1284.9 360.08V383.04H1290.78V406H1246.54V383.04H1252.7V351.12H1246.54V328.16H1284.9V339.08C1291.62 330.493 1300.02 326.2 1310.1 326.2C1315.8 326.2 1320.42 327.553 1323.96 330.26C1327.6 332.873 1330.17 336.607 1331.66 341.46C1335.02 336.607 1338.85 332.873 1343.14 330.26C1347.53 327.647 1352.66 326.34 1358.54 326.34C1366.29 326.34 1372.08 328.767 1375.9 333.62C1379.82 338.473 1381.78 345.147 1381.78 353.64V383.04H1387.94ZM1533.82 383.04V406H1489.58V383.04H1495.46V360.08C1495.46 357 1494.81 354.76 1493.5 353.36C1492.2 351.867 1490.24 351.12 1487.62 351.12C1482.02 351.12 1479.22 354.107 1479.22 360.08V383.04H1485.1V406H1441.14V383.04H1447.02V360.08C1447.02 357 1446.37 354.76 1445.06 353.36C1443.76 351.867 1441.8 351.12 1439.18 351.12C1433.58 351.12 1430.78 354.107 1430.78 360.08V383.04H1436.66V406H1392.42V383.04H1398.58V351.12H1392.42V328.16H1430.78V339.08C1437.5 330.493 1445.9 326.2 1455.98 326.2C1461.68 326.2 1466.3 327.553 1469.84 330.26C1473.48 332.873 1476.05 336.607 1477.54 341.46C1480.9 336.607 1484.73 332.873 1489.02 330.26C1493.41 327.647 1498.54 326.34 1504.42 326.34C1512.17 326.34 1517.96 328.767 1521.78 333.62C1525.7 338.473 1527.66 345.147 1527.66 353.64V383.04H1533.82ZM1545.02 320.46V297.08H1573.58V320.46H1545.02ZM1538.3 406V383.04H1544.46V351.12H1538.3V328.16H1576.66V383.04H1582.82V406H1538.3ZM1679.66 383.04V406H1635.42V383.04H1641.3V360.08C1641.3 357 1640.65 354.76 1639.34 353.36C1638.03 351.867 1636.07 351.12 1633.46 351.12C1627.86 351.12 1625.06 354.107 1625.06 360.08V383.04H1630.94V406H1586.7V383.04H1592.86V351.12H1586.7V328.16H1625.06V339.08C1631.78 330.493 1640.18 326.2 1650.26 326.2C1658.01 326.2 1663.79 328.627 1667.62 333.48C1671.54 338.333 1673.5 345.007 1673.5 353.5V383.04H1679.66ZM1725.2 439.04C1718.48 439.04 1712.04 438.573 1705.88 437.64C1699.81 436.707 1695.1 435.633 1691.74 434.42V411.46C1701.63 413.233 1710.5 414.12 1718.34 414.12C1723.66 414.12 1727.49 413.28 1729.82 411.6C1732.25 410.013 1733.46 406.98 1733.46 402.5V396.48C1731.13 399.467 1728.09 402.127 1724.36 404.46C1720.72 406.793 1716.52 407.96 1711.76 407.96C1702.24 407.96 1695.05 404.413 1690.2 397.32C1685.44 390.227 1683.06 380.147 1683.06 367.08C1683.06 354.013 1685.44 343.933 1690.2 336.84C1695.05 329.747 1702.24 326.2 1711.76 326.2C1716.52 326.2 1720.72 327.367 1724.36 329.7C1728.09 332.033 1731.13 334.693 1733.46 337.68V328.16H1771.82V351.12H1765.66V400.4C1765.66 413.933 1762.3 423.733 1755.58 429.8C1748.86 435.96 1738.73 439.04 1725.2 439.04ZM1725.34 383.04C1728.05 383.04 1730.05 382.34 1731.36 380.94C1732.76 379.447 1733.46 377.16 1733.46 374.08V360.08C1733.46 357 1732.76 354.76 1731.36 353.36C1730.05 351.867 1728.05 351.12 1725.34 351.12C1722.63 351.12 1720.58 351.867 1719.18 353.36C1717.87 354.76 1717.22 357 1717.22 360.08V374.08C1717.22 377.16 1717.87 379.447 1719.18 380.94C1720.58 382.34 1722.63 383.04 1725.34 383.04ZM729.616 598V575.04H736.616V512.04H729.616V489.08H788.696V512.04H775.816V575.04H788.416V562.16H816.276V598H729.616ZM902.421 575.04V598H865.461V588.48C863.408 591.467 860.515 594.127 856.781 596.46C853.141 598.793 848.661 599.96 843.341 599.96C836.341 599.96 830.835 598.093 826.821 594.36C822.808 590.627 820.801 585.353 820.801 578.54C820.801 560.9 835.781 551.847 865.741 551.38C865.461 548.207 864.248 546.06 862.101 544.94C859.955 543.727 856.315 543.12 851.181 543.12C846.981 543.12 842.455 543.587 837.601 544.52C832.841 545.36 828.455 546.527 824.441 548.02V522.26C829.388 521.047 834.755 520.067 840.541 519.32C846.328 518.573 851.975 518.2 857.481 518.2C871.388 518.2 881.328 520.72 887.301 525.76C893.275 530.8 896.261 538.593 896.261 549.14V575.04H902.421ZM865.461 565.24C861.261 565.24 857.995 565.8 855.661 566.92C853.421 568.04 852.301 569.907 852.301 572.52C852.301 574.107 852.768 575.413 853.701 576.44C854.728 577.373 856.128 577.84 857.901 577.84C860.328 577.84 862.195 576.813 863.501 574.76C864.808 572.707 865.461 569.813 865.461 566.08V565.24ZM999.894 575.04V598H955.654V575.04H961.534V552.08C961.534 549 960.881 546.76 959.574 545.36C958.267 543.867 956.307 543.12 953.694 543.12C948.094 543.12 945.294 546.107 945.294 552.08V575.04H951.174V598H906.934V575.04H913.094V543.12H906.934V520.16H945.294V531.08C952.014 522.493 960.414 518.2 970.494 518.2C978.241 518.2 984.027 520.627 987.854 525.48C991.774 530.333 993.734 537.007 993.734 545.5V575.04H999.894ZM1045.43 631.04C1038.71 631.04 1032.27 630.573 1026.11 629.64C1020.05 628.707 1015.33 627.633 1011.97 626.42V603.46C1021.87 605.233 1030.73 606.12 1038.57 606.12C1043.89 606.12 1047.72 605.28 1050.05 603.6C1052.48 602.013 1053.69 598.98 1053.69 594.5V588.48C1051.36 591.467 1048.33 594.127 1044.59 596.46C1040.95 598.793 1036.75 599.96 1031.99 599.96C1022.47 599.96 1015.29 596.413 1010.43 589.32C1005.67 582.227 1003.29 572.147 1003.29 559.08C1003.29 546.013 1005.67 535.933 1010.43 528.84C1015.29 521.747 1022.47 518.2 1031.99 518.2C1036.75 518.2 1040.95 519.367 1044.59 521.7C1048.33 524.033 1051.36 526.693 1053.69 529.68V520.16H1092.05V543.12H1085.89V592.4C1085.89 605.933 1082.53 615.733 1075.81 621.8C1069.09 627.96 1058.97 631.04 1045.43 631.04ZM1045.57 575.04C1048.28 575.04 1050.29 574.34 1051.59 572.94C1052.99 571.447 1053.69 569.16 1053.69 566.08V552.08C1053.69 549 1052.99 546.76 1051.59 545.36C1050.29 543.867 1048.28 543.12 1045.57 543.12C1042.87 543.12 1040.81 543.867 1039.41 545.36C1038.11 546.76 1037.45 549 1037.45 552.08V566.08C1037.45 569.16 1038.11 571.447 1039.41 572.94C1040.81 574.34 1042.87 575.04 1045.57 575.04ZM1188.14 575.04V598H1149.78V587.08C1143.06 595.667 1134.66 599.96 1124.58 599.96C1116.83 599.96 1111 597.533 1107.08 592.68C1103.25 587.827 1101.34 581.153 1101.34 572.66V543.12H1095.18V520.16H1133.54V566.08C1133.54 569.16 1134.19 571.447 1135.5 572.94C1136.9 574.34 1138.95 575.04 1141.66 575.04C1144.36 575.04 1146.37 574.34 1147.68 572.94C1149.08 571.447 1149.78 569.16 1149.78 566.08V543.12H1142.22V520.16H1181.98V575.04H1188.14ZM1273.61 575.04V598H1236.65V588.48C1234.6 591.467 1231.71 594.127 1227.97 596.46C1224.33 598.793 1219.85 599.96 1214.53 599.96C1207.53 599.96 1202.03 598.093 1198.01 594.36C1194 590.627 1191.99 585.353 1191.99 578.54C1191.99 560.9 1206.97 551.847 1236.93 551.38C1236.65 548.207 1235.44 546.06 1233.29 544.94C1231.15 543.727 1227.51 543.12 1222.37 543.12C1218.17 543.12 1213.65 543.587 1208.79 544.52C1204.03 545.36 1199.65 546.527 1195.63 548.02V522.26C1200.58 521.047 1205.95 520.067 1211.73 519.32C1217.52 518.573 1223.17 518.2 1228.67 518.2C1242.58 518.2 1252.52 520.72 1258.49 525.76C1264.47 530.8 1267.45 538.593 1267.45 549.14V575.04H1273.61ZM1236.65 565.24C1232.45 565.24 1229.19 565.8 1226.85 566.92C1224.61 568.04 1223.49 569.907 1223.49 572.52C1223.49 574.107 1223.96 575.413 1224.89 576.44C1225.92 577.373 1227.32 577.84 1229.09 577.84C1231.52 577.84 1233.39 576.813 1234.69 574.76C1236 572.707 1236.65 569.813 1236.65 566.08V565.24ZM1319.15 631.04C1312.43 631.04 1305.99 630.573 1299.83 629.64C1293.76 628.707 1289.05 627.633 1285.69 626.42V603.46C1295.58 605.233 1304.45 606.12 1312.29 606.12C1317.61 606.12 1321.43 605.28 1323.77 603.6C1326.19 602.013 1327.41 598.98 1327.41 594.5V588.48C1325.07 591.467 1322.04 594.127 1318.31 596.46C1314.67 598.793 1310.47 599.96 1305.71 599.96C1296.19 599.96 1289 596.413 1284.15 589.32C1279.39 582.227 1277.01 572.147 1277.01 559.08C1277.01 546.013 1279.39 535.933 1284.15 528.84C1289 521.747 1296.19 518.2 1305.71 518.2C1310.47 518.2 1314.67 519.367 1318.31 521.7C1322.04 524.033 1325.07 526.693 1327.41 529.68V520.16H1365.77V543.12H1359.61V592.4C1359.61 605.933 1356.25 615.733 1349.53 621.8C1342.81 627.96 1332.68 631.04 1319.15 631.04ZM1319.29 575.04C1321.99 575.04 1324 574.34 1325.31 572.94C1326.71 571.447 1327.41 569.16 1327.41 566.08V552.08C1327.41 549 1326.71 546.76 1325.31 545.36C1324 543.867 1321.99 543.12 1319.29 543.12C1316.58 543.12 1314.53 543.867 1313.13 545.36C1311.82 546.76 1311.17 549 1311.17 552.08V566.08C1311.17 569.16 1311.82 571.447 1313.13 572.94C1314.53 574.34 1316.58 575.04 1319.29 575.04ZM1411.45 599.96C1398.19 599.96 1387.83 596.507 1380.37 589.6C1372.9 582.6 1369.17 572.427 1369.17 559.08C1369.17 545.733 1372.9 535.607 1380.37 528.7C1387.83 521.7 1398.19 518.2 1411.45 518.2C1424.61 518.2 1434.08 521.653 1439.87 528.56C1445.75 535.373 1448.69 543.867 1448.69 554.04V564.12H1403.33V564.96C1403.33 568.413 1404.35 570.98 1406.41 572.66C1408.46 574.247 1411.87 575.04 1416.63 575.04C1422.32 575.04 1427.73 574.62 1432.87 573.78C1438 572.94 1442.48 571.867 1446.31 570.56V592.96C1443.04 594.733 1438.23 596.367 1431.89 597.86C1425.63 599.26 1418.82 599.96 1411.45 599.96ZM1419.57 548.72V547.04C1419.57 543.867 1418.87 541.58 1417.47 540.18C1416.16 538.78 1414.15 538.08 1411.45 538.08C1408.74 538.08 1406.69 538.827 1405.29 540.32C1403.98 541.72 1403.33 543.96 1403.33 547.04V548.72H1419.57Z" fill="white"/>
</svg>
