<svg width="675" height="733" viewBox="0 0 675 733" fill="none" xmlns="http://www.w3.org/2000/svg">
<path d="M674.634 549.75L337.316 733L15.2871 558.055L60.1865 534.649L337.316 685.202L632.634 524.769V236.239L674.634 214.345V549.75ZM572.363 267.657C580.035 282.153 585.952 297.409 590.111 313.424C594.669 330.855 596.947 348.743 596.947 367.086C596.947 385.429 594.669 403.373 590.111 420.919C585.554 438.351 578.889 454.928 570.116 470.65C561.457 486.373 550.406 500.842 536.962 514.059C523.632 527.275 508.536 538.725 491.674 548.409C474.926 557.979 455.671 565.499 433.91 570.968C412.149 576.323 389.021 579 364.525 579H145.775V524.312H200.463V461.525L309.838 404.509V524.312H364.525C382.299 524.312 398.192 520.382 412.206 512.521C426.22 504.545 437.67 493.494 446.557 479.366C455.557 465.239 462.336 448.718 466.894 429.806C471.565 410.779 473.9 389.872 473.9 367.086C473.9 350.611 472.783 335.159 470.55 320.731L572.363 267.657ZM650.891 170.352L605.992 193.757L337.316 47.7969L42 208.229V487.76L0 509.654V183.25L337.316 0L650.891 170.352ZM364.525 155.172C389.021 155.172 412.149 157.906 433.91 163.375C455.671 168.73 474.926 176.249 491.674 185.934C508.536 195.504 523.632 206.897 536.962 220.113C539.095 222.21 541.168 224.34 543.181 226.5L456.444 271.714C450.73 259.02 443.732 248.2 435.448 239.254C427.017 229.911 416.763 222.677 404.687 217.55C392.61 212.423 379.223 209.859 364.525 209.859H309.838V348.139L200.463 405.155V209.859H145.775V155.172H364.525Z" fill="black"/>
</svg>
